<?xml version="1.0" standalone="no"?>
<!DOCTYPE svg PUBLIC "-//W3C//DTD SVG 20010904//EN"
 "http://www.w3.org/TR/2001/REC-SVG-20010904/DTD/svg10.dtd">
<svg version="1.0" xmlns="http://www.w3.org/2000/svg"
 width="950.000000pt" height="950.000000pt" viewBox="0 0 950.000000 950.000000"
 preserveAspectRatio="xMidYMid meet">
<metadata>
Created by potrace 1.11, written by Peter Selinger 2001-2013
</metadata>
<g transform="translate(0.000000,950.000000) scale(0.100000,-0.100000)"
fill="#000000" stroke="none">
<path d="M3931 8698 c-43 -90 -219 -451 -391 -803 -311 -636 -432 -886 -600
-1230 -48 -99 -685 -1404 -1415 -2900 -730 -1496 -1372 -2811 -1426 -2922
l-98 -203 733 0 732 0 1640 3360 c901 1848 1641 3360 1644 3360 3 0 385 -780
850 -1733 l846 -1732 -847 -3 -846 -2 -321 -658 -322 -657 1491 -3 1491 -2
147 -303 148 -302 -1720 -3 c-1021 -1 -1725 -6 -1730 -11 -5 -5 -152 -301
-326 -658 l-317 -648 1547 -3 c851 -1 2247 -1 3102 0 l1555 3 -2004 4105
-2003 4105 -741 3 -741 2 -78 -162z"/>
</g>
</svg>
