<svg xmlns="http://www.w3.org/2000/svg" xmlns:xlink="http://www.w3.org/1999/xlink" viewBox="0 0 1920 1440">
  <defs>
    <clipPath id="a">
      <ellipse cx="975.48" cy="751.01" rx="154.45" ry="155.98" fill="none"/>
    </clipPath>
    <clipPath id="b">
      <ellipse cx="992.99" cy="716.97" rx="31.69" ry="22.4" transform="translate(128.32 1584.39) rotate(-80.92)" fill="none"/>
    </clipPath>
    <linearGradient id="c" x1="977.75" y1="728.33" x2="998.7" y2="692.03" gradientUnits="userSpaceOnUse">
      <stop offset="0" stop-color="#ff3700"/>
      <stop offset="1" stop-color="#f7931e"/>
    </linearGradient>
    <clipPath id="d">
      <ellipse cx="920.49" cy="701.52" rx="31.69" ry="22.4" transform="matrix(0.16, -0.99, 0.99, 0.16, 82.52, 1499.79)" fill="none"/>
    </clipPath>
    <linearGradient id="e" x1="905.41" y1="714.33" x2="926.37" y2="678.03" xlink:href="#c"/>
    <clipPath id="f">
      <ellipse cx="1525.5" cy="381.51" rx="159.47" ry="162.47" fill="none"/>
    </clipPath>
    <linearGradient id="g" x1="964.21" y1="360.71" x2="999.41" y2="299.75" gradientTransform="translate(528 215.55) rotate(-12.75)" gradientUnits="userSpaceOnUse">
      <stop offset="0" stop-color="#db1b16"/>
      <stop offset="1" stop-color="#ff605c"/>
    </linearGradient>
    <clipPath id="h">
      <ellipse cx="1595.5" cy="1084.81" rx="70.49" ry="71.18" fill="none"/>
    </clipPath>
    <clipPath id="i">
      <ellipse cx="289.98" cy="1141.01" rx="102.97" ry="103.99" fill="none"/>
    </clipPath>
    <clipPath id="j">
      <ellipse cx="408.5" cy="321.55" rx="198.46" ry="200.43" fill="none"/>
    </clipPath>
    <clipPath id="k">
      <ellipse cx="398.35" cy="266.39" rx="40.82" ry="28.85" transform="translate(60.17 605.92) rotate(-78.89)" fill="none"/>
    </clipPath>
    <linearGradient id="l" x1="383.13" y1="303.15" x2="409.87" y2="256.84" gradientTransform="translate(687.19 -124.28) rotate(90)" gradientUnits="userSpaceOnUse">
      <stop offset="0" stop-color="#4079bb"/>
      <stop offset="1" stop-color="#63a8f2"/>
    </linearGradient>
    <clipPath id="m">
      <ellipse cx="492.85" cy="279.94" rx="40.82" ry="28.85" transform="translate(123.15 709.58) rotate(-78.89)" fill="none"/>
    </clipPath>
    <linearGradient id="n" x1="477.13" y1="284.15" x2="503.87" y2="237.84" gradientTransform="translate(762.97 -203.67) rotate(90)" xlink:href="#l"/>
    <clipPath id="o">
      <ellipse cx="425.5" cy="257.1" rx="13.78" ry="12.98" transform="translate(91.2 625.05) rotate(-78.89)" fill="none"/>
    </clipPath>
    <clipPath id="r">
      <ellipse cx="492.85" cy="279.94" rx="40.82" ry="28.85" transform="translate(123.15 709.58) rotate(-78.89)" fill="none"/>
    </clipPath>
    <clipPath id="s">
      <ellipse cx="988.91" cy="1162.3" rx="61.08" ry="61.69" fill="none"/>
    </clipPath>
  </defs>
  <title>landscape</title>
  <g style="isolation: isolate">
    <g>
      <g>
        <path d="M1180.88,603.44c8.82,2.6,15.21,6.92,18.83,12.92,9.5,15.73,5,33.83-21.26,66.54.89.21,3,3.18,3.53,4s-5.58,8.48-5.28,9.36a4.21,4.21,0,0,1,.22,2c29.77-36.36,39.92-66.42,28.54-85.28-4.69-7.76-12.75-13.18-23.83-16.22Z" fill="#ffdd50" stroke="#000" stroke-miterlimit="10"/>
        <path d="M1209.38,788.69c4.46,8,6,15.6,4.36,22.41-4.26,17.87-20.13,27.65-61.82,32.53.49.77-.1,4.37-.25,5.29s-9.93,2.13-10.33,3a4.4,4.4,0,0,1-1.22,1.55c46.72-5,75-19.35,80.15-40.78,2.1-8.82.16-18.34-5.61-28.28Z" fill="#ffdd50" stroke="#000" stroke-miterlimit="10"/>
        <path d="M791.05,798.09c34.14-38.79,85.85-80,145.61-116.07S1057,619.41,1107.23,607.3c47.88-11.54,81.4-8.33,92.21,8.61a53,53,0,0,0-6.93-15c-17.53-9.42-47.46-9.66-86.86-.15-50.88,12.28-112.12,39.09-172.45,75.49S820.6,754.36,786,793.65Z" fill="#faa41a" stroke="#000" stroke-miterlimit="10"/>
        <g>
          <path d="M775.79,833.83a23.46,23.46,0,0,1-23.13-27.57,23.47,23.47,0,1,1,23.13,27.57Z" fill="#fdb913"/>
          <path d="M775.75,787.38a23,23,0,1,1-13.14,4.15,22.93,22.93,0,0,1,13.14-4.15m0-1a24,24,0,1,0,19.67,10.24,23.84,23.84,0,0,0-19.67-10.24Z"/>
        </g>
        <path d="M705.06,683.45c9.21-19.83,40.54-32.55,89.43-36.07,52.2-3.76,118.7,3.18,187.24,19.53s131,40.2,175.88,67.12c34.76,20.86,55.93,42,61.82,61a53.43,53.43,0,0,1-5.57,15.53c4.18-19.65-17.48-45.45-59.7-70.8-44.3-26.6-106.1-50.15-174-66.35S846.51,650.36,795,654.07c-49.56,3.57-80.69,16.93-85.4,36.66a23.62,23.62,0,0,0-.21,10.52A51.58,51.58,0,0,1,705.06,683.45Z" fill="#faa41a" stroke="#000" stroke-miterlimit="10"/>
        <g>
          <path d="M1150.74,872.17a23.48,23.48,0,1,1,22.81-18,23.45,23.45,0,0,1-22.81,18Z" fill="#fdb913"/>
          <path d="M1150.7,825.72a23,23,0,1,1-22.33,17.64,22.92,22.92,0,0,1,22.33-17.64m0-1a24,24,0,1,0,5.58.66,23.89,23.89,0,0,0-5.58-.66Z"/>
        </g>
        <g clip-path="url(#a)">
          <ellipse cx="975.48" cy="751.01" rx="154.45" ry="155.98" fill="#fdb913"/>
          <ellipse cx="975.48" cy="751.01" rx="154.45" ry="155.98" fill="none" stroke="#000" stroke-miterlimit="10" stroke-width="1.49"/>
        </g>
        <path d="M708.91,695c-1,19.13,20.62,43.26,60.25,67,44.31,26.58,106.1,50.15,174,66.35s133.67,23.07,185.2,19.36c3.45-.25,6.82-.54,10.09-.88a2.61,2.61,0,0,1,2.47,1.15,3.4,3.4,0,0,1,.12,3.9,3.89,3.89,0,0,1-2.9,1.72c-3,.3-6.12.58-9.29.81-52.21,3.76-118.71-3.18-187.24-19.54s-131-40.19-175.89-67.12c-46-27.57-68.22-55.48-62.71-78.58a36.62,36.62,0,0,1,3.5-8.5S704.75,687.1,708.91,695Z" fill="#ffdd50" stroke="#000" stroke-miterlimit="10"/>
        <g>
          <path d="M1181.17,710.83a23.48,23.48,0,1,1,12.1-3.38,23.31,23.31,0,0,1-12.1,3.38Z" fill="#fdb913"/>
          <path d="M1181.12,664.38a23,23,0,1,1-11.84,3.31,22.95,22.95,0,0,1,11.84-3.31m0-1A24,24,0,1,0,1201.67,675a23.91,23.91,0,0,0-20.55-11.59Z"/>
        </g>
        <path d="M758.41,887.62c12.73,14.31,45,16.39,90,5.54,50.23-12.12,110.81-38.65,170.56-74.71s111.47-77.28,145.61-116.07q3.43-3.9,6.57-7.7a2.61,2.61,0,0,1,2.57-.92,3.41,3.41,0,0,1,2.82,2.7,3.88,3.88,0,0,1-.86,3.26c-1.94,2.34-4,4.7-6.06,7.09-34.58,39.29-86.85,81-147.18,117.38S900.83,887.41,850,899.69c-52.1,12.57-87.55,8.29-99.82-12a36.54,36.54,0,0,1-3.46-8.52S749.9,884.9,758.41,887.62Z" fill="#ffdd50" stroke="#000" stroke-miterlimit="10"/>
        <path d="M775.27,815.87a1.34,1.34,0,0,1,.06,1.68c-21,28.64-28,52.31-19.45,66.56a23.55,23.55,0,0,0,7.23,7.64,51.32,51.32,0,0,1-15.55-9.67c-5.94-16.66,1.71-40.17,22-68a1.3,1.3,0,0,1,1.14-.56A6.61,6.61,0,0,1,775.27,815.87Z" fill="#faa41a" stroke="#000" stroke-miterlimit="10"/>
        <g>
          <path d="M990.53,749a16.34,16.34,0,0,1-2.62-.21c-12.47-2-20.34-17.87-17.54-35.4C973,697.17,983.74,685,995.45,685a16.53,16.53,0,0,1,2.62.21c6.07,1,11.24,5.21,14.54,11.94s4.34,15,3,23.46C1013,736.77,1002.24,749,990.53,749Z" fill="#fff"/>
          <path d="M995.45,685.47a16.82,16.82,0,0,1,2.54.2c12.22,2,19.88,17.55,17.12,34.84-2.57,16.08-13.26,28-24.58,28a16.72,16.72,0,0,1-2.54-.2c-12.22-2-19.89-17.55-17.12-34.83,2.57-16.09,13.26-28,24.58-28m0-1c-12,0-23,12.39-25.57,28.81-1.37,8.56-.29,17,3,23.76s8.68,11.22,14.92,12.21a16.3,16.3,0,0,0,2.7.22c12,0,22.94-12.39,25.57-28.81,1.36-8.56.29-17-3-23.76s-8.68-11.22-14.91-12.21a16.3,16.3,0,0,0-2.7-.22Z"/>
        </g>
        <g clip-path="url(#b)">
          <ellipse cx="988.22" cy="710.18" rx="18.3" ry="21.76" fill="url(#c)"/>
        </g>
        <ellipse cx="1005" cy="712.45" rx="10.7" ry="10.08" transform="matrix(0.16, -0.99, 0.99, 0.16, 142.9, 1592.45)" fill="#fff"/>
        <g>
          <path d="M918,733.52a16.53,16.53,0,0,1-2.62-.21c-12.47-2-20.34-17.88-17.53-35.41,2.58-16.18,13.36-28.38,25.07-28.38a16.43,16.43,0,0,1,2.62.21c12.47,2,20.34,17.87,17.54,35.4-2.59,16.18-13.37,28.39-25.08,28.39Z" fill="#fff"/>
          <path d="M923,670a16.82,16.82,0,0,1,2.54.2c12.22,1.95,19.88,17.55,17.12,34.83C940,721.14,929.35,733,918,733a15.64,15.64,0,0,1-2.54-.21c-12.22-1.95-19.88-17.54-17.12-34.83,2.57-16.08,13.26-28,24.58-28m0-1c-12,0-22.94,12.38-25.57,28.81-1.37,8.56-.29,17,3,23.76s8.67,11.22,14.91,12.21a17.46,17.46,0,0,0,2.7.22c12,0,23-12.39,25.57-28.81,1.37-8.56.29-17-3-23.76s-8.68-11.22-14.92-12.22A17.44,17.44,0,0,0,923,669Z"/>
        </g>
        <g clip-path="url(#d)">
          <ellipse cx="915.89" cy="696.18" rx="18.3" ry="21.76" fill="url(#e)"/>
        </g>
        <ellipse cx="932.33" cy="697.16" rx="10.7" ry="10.08" transform="translate(96.8 1507.81) rotate(-80.92)" fill="#fff"/>
        <path d="M978,695.82c5.28-7.24,12.64-11.33,20-10.15,10.39,1.66,17.48,13.2,17.67,27.24C1008.62,706.2,995.29,696.23,978,695.82Z" fill="#fdb913" opacity="0.3" style="mix-blend-mode: multiply"/>
        <path d="M905.49,680.33c5.27-7.21,12.62-11.29,20-10.11,10.48,1.68,17.6,13.38,17.68,27.57C936.29,691.14,922.94,680.9,905.49,680.33Z" fill="#fdb913" opacity="0.3" style="mix-blend-mode: multiply"/>
        <g>
          <path d="M947.56,796.9a49.43,49.43,0,0,1-10.29-1.07A53,53,0,0,1,910,780.23C903.25,772.9,900,765,901.23,759c.82-3.87,3.35-5.75,7.74-5.75s10.6,1.88,17.71,4.07c5.36,1.64,11.43,3.5,17.74,4.84s12.61,2.1,18.17,2.77c10.49,1.26,18.77,2.26,21.68,6.33a6.65,6.65,0,0,1,.9,5.53C982.9,787.49,965.33,796.9,947.56,796.9Z" fill="#f77331"/>
          <path d="M909,753.72c7.75,0,20.73,5.8,35.34,8.9,21.89,4.64,42.87,2.24,40.37,14-2.11,10-18.79,19.74-37.11,19.74a49.2,49.2,0,0,1-10.19-1.06c-21.89-4.63-38.16-24.48-35.66-36.27.83-3.91,3.39-5.35,7.25-5.35m0-1v0h0c-4.66,0-7.35,2-8.23,6.14-1.3,6.15,2,14.26,8.93,21.71a53.44,53.44,0,0,0,27.5,15.75,50.34,50.34,0,0,0,10.4,1.08c18,0,35.77-9.6,38.09-20.54a7.18,7.18,0,0,0-1-5.92c-3-4.25-11.42-5.26-22-6.54-5.55-.67-11.84-1.43-18.13-2.76s-12.35-3.19-17.69-4.83c-7.15-2.2-13.32-4.09-17.86-4.09Z"/>
        </g>
        <path d="M921.45,788.91a50.4,50.4,0,0,0,15.93,6.43,52.06,52.06,0,0,0,34.65-5C965.39,784.27,944.45,768.73,921.45,788.91Z" fill="#faa41a"/>
        <path d="M979.27,773.44l.83-3.94a3.39,3.39,0,0,0,.07-.7c-7.11-3.12-21.28-3.09-35.86-6.18-14.21-3-26.87-8.58-34.69-8.89a3.27,3.27,0,0,0-.27.78l-.83,3.94a3.18,3.18,0,0,0,2.46,3.78l64.51,13.67A3.18,3.18,0,0,0,979.27,773.44Z" fill="#fff"/>
      </g>
      <g>
        <path d="M1308.69,536.94c-.14,9.8,2.22,17.68,7.19,23.27,13,14.65,32.83,15.85,74.47-.55-.07,1,2.3,4.06,2.91,4.85s10.4-3,11.19-2.41a4.82,4.82,0,0,0,1.93.84c-46.44,18.78-80.26,19.58-95.85,2-6.42-7.23-9.39-17.16-9-29.4Z" fill="#ff605c" stroke="#000" stroke-miterlimit="10"/>
        <path d="M1276.84,271.76c-8.55,4.77-14.19,10.77-16.55,17.86-6.18,18.59,2.7,36.36,37.74,64.21-.88.42-2.37,4-2.74,4.94s7.79,7.5,7.69,8.49a4.63,4.63,0,0,0,.23,2.09c-39.5-30.82-57.11-59.7-49.71-82,3-9.17,10.16-16.7,21-22.47Z" fill="#ff605c" stroke="#000" stroke-miterlimit="10"/>
        <path d="M1630.42,201.8c-50.3,22.46-108.66,62-164.31,111.44s-101.88,102.65-130.13,150c-26.93,45.08-34.3,80.23-20.47,96.6a57,57,0,0,1-13.06-11.8c-4-20.84,5.21-51.38,27.38-88.47,28.63-47.91,75.34-101.76,131.53-151.63S1576.55,218,1627.51,195.27Z" fill="#ea3d3d" stroke="#000" stroke-miterlimit="10"/>
        <circle cx="1636.76" cy="196.76" r="24.49" fill="#ef1d18" stroke="#000" stroke-miterlimit="10"/>
        <path d="M1758.68,408.21A265.87,265.87,0,0,0,1728,382.63c-44.61-32.32-108.08-63-178.7-86.51s-139.85-36.85-194.94-37.64c-52.51-.76-86.62,10.45-93.88,30.61a56.94,56.94,0,0,1,3.68-17.21c16-13.92,47.1-21.19,90.31-20.56,55.8.82,125.79,14.32,197.09,38S1687,344.1,1732.19,376.84a273.64,273.64,0,0,1,31.56,26.3Z" fill="#ea3d3d" stroke="#000" stroke-miterlimit="10"/>
        <circle cx="1764.48" cy="410.37" r="24.49" fill="#ef1d18" stroke="#000" stroke-miterlimit="10"/>
        <path d="M1773.93,422a3,3,0,0,0-.06,3.62c10.56,14.5,14.45,27.6,10.9,38.26a25,25,0,0,1-5.72,9.66A55.11,55.11,0,0,0,1793,459.77c1.4-11.59-3.23-24.69-13.52-38.72a3,3,0,0,0-4.72-.09Z" fill="#ea3d3d" stroke="#000" stroke-miterlimit="10"/>
        <circle cx="1296.28" cy="359.1" r="24.49" fill="#ef1d18" stroke="#000" stroke-miterlimit="10"/>
        <g clip-path="url(#f)">
          <ellipse cx="1525.5" cy="381.51" rx="159.47" ry="162.47" fill="#ff6464" stroke="#000" stroke-miterlimit="10"/>
          <ellipse cx="1525.5" cy="381.51" rx="159.47" ry="162.47" fill="none" stroke="#000" stroke-miterlimit="10" stroke-width="1.54"/>
        </g>
        <path d="M1591.62,490.47c35.71,7.22,69.35,11.23,99,11.66,57.13.84,93-11.93,101-36a39.2,39.2,0,0,0,1.6-9.67s-2,6.77-10.22,11.59c-9.88,17.88-43,27.62-92.26,26.9-29.39-.43-62.81-4.44-98.32-11.65Z" fill="#fc9292" stroke="#000" stroke-miterlimit="10"/>
        <circle cx="1599.61" cy="488.94" r="24.49" fill="#ef1d18" stroke="#000" stroke-miterlimit="10"/>
        <path d="M1580.18,484.78a3.25,3.25,0,0,1-3.86,2.43,855.18,855.18,0,0,1-82.8-23.09c-71.3-23.69-135.45-54.76-180.64-87.5q-4.14-3-8-6a4.14,4.14,0,0,1-1.64-3.3,3.64,3.64,0,0,1,2.3-3.33,2.8,2.8,0,0,1,2.9.34q4.15,3.22,8.63,6.47c44.62,32.32,108.08,63.05,178.7,86.51a849.23,849.23,0,0,0,82.12,22.9,3.25,3.25,0,0,1,2.45,3.91Z" fill="#fc9292" stroke="#000" stroke-miterlimit="10"/>
        <circle cx="1394.04" cy="563.81" r="24.49" fill="#ef1d18" stroke="#000" stroke-miterlimit="10"/>
        <path d="M1731.92,197c10.53,17.5,2.4,51-22.88,93.33-28.26,47.3-74.48,100.55-130.13,150s-114,89-164.32,111.44q-5,2.25-9.92,4.24a2.8,2.8,0,0,0-1.75,2.33,3.64,3.64,0,0,0,1.85,3.72,4.13,4.13,0,0,0,3.6.16q4.49-1.85,9.14-3.92c51-22.75,110-62.74,166.15-112.62S1686.55,341.87,1715.18,294c29.32-49,36.2-86.49,19.39-105.43a39.22,39.22,0,0,0-7.57-6.22S1731.85,187.43,1731.92,197Z" fill="#fc9292" stroke="#000" stroke-miterlimit="10"/>
        <path d="M1653.53,191.37a1.43,1.43,0,0,0,1.69.6c35.8-12.26,62.14-12,73.92,1.3a25.16,25.16,0,0,1,5.5,9.78,55.29,55.29,0,0,0-4.92-18.9c-15.08-11.33-41.44-11-76.24.84a1.45,1.45,0,0,0-.93,1A7.06,7.06,0,0,0,1653.53,191.37Z" fill="#ea3d3d" stroke="#000" stroke-miterlimit="10"/>
        <g>
          <g>
            <path d="M1576.2,345.12c-11.21,0-23-9.89-28.67-24-3.4-8.48-4.25-17.39-2.41-25.09s6.22-13.38,12.3-15.81a17.88,17.88,0,0,1,6.71-1.28c11.21,0,23,9.89,28.67,24.05,7,17.55,2.6,35.9-9.89,40.9A18.07,18.07,0,0,1,1576.2,345.12Z" fill="#fff"/>
            <path d="M1564.13,279.4c10.8,0,22.46,9.37,28.21,23.73,6.94,17.33,2.63,35.35-9.61,40.25a17.49,17.49,0,0,1-6.53,1.24c-10.8,0-22.46-9.37-28.21-23.73-6.94-17.32-2.63-35.35,9.61-40.25a17.49,17.49,0,0,1,6.53-1.24m0-1v0h0a18.48,18.48,0,0,0-6.9,1.31c-12.74,5.1-17.3,23.74-10.17,41.55,5.75,14.34,17.73,24.36,29.14,24.36a18.52,18.52,0,0,0,6.9-1.31c6.23-2.5,10.71-8.24,12.6-16.16s1-16.82-2.43-25.39c-5.75-14.34-17.73-24.36-29.14-24.36Z"/>
          </g>
          <path d="M1580.35,305c-2.83-12.49-13.51-20.72-23.87-18.37a17,17,0,0,0-10.13,6.94c-2.61,7.71-2.25,17.65,1.64,27.37a46.52,46.52,0,0,0,3.41,6.85c4.42,3.64,9.91,5.3,15.31,4.07C1577.07,329.47,1583.17,317.45,1580.35,305Z" fill="url(#g)"/>
          <ellipse cx="1577.91" cy="302.56" rx="10.74" ry="11.41" transform="translate(0.61 608.26) rotate(-21.82)" fill="#fff"/>
          <path d="M1580.78,286.45c-7.18-6.26-15.78-8.77-23.18-5.81-10.5,4.2-15.15,18.05-11.9,32.83C1551.29,304.94,1562.77,291.15,1580.78,286.45Z" fill="#ff605c" opacity="0.3" style="mix-blend-mode: multiply"/>
          <g style="mix-blend-mode: multiply">
            <path d="M1509.4,341.11a77.32,77.32,0,0,0-11.13,3.81,49.83,49.83,0,0,0-8.84,4.92,41.32,41.32,0,0,0-7.3,6.7,45.4,45.4,0,0,0-6.29,9.68c-2.24-4-2.15-9-.65-13.38a22.93,22.93,0,0,1,8.44-11.15,24.29,24.29,0,0,1,13.07-4.45C1501.25,337.09,1505.92,338.18,1509.4,341.11Z" fill="#ff6464"/>
          </g>
          <g style="mix-blend-mode: multiply">
            <path d="M1469.35,367.69a8.41,8.41,0,0,1-2,1.48,12.74,12.74,0,0,1-2.18.95,12.9,12.9,0,0,1-2.31.53,8.31,8.31,0,0,1-2.49,0,8.2,8.2,0,0,1,2-1.49,12,12,0,0,1,2.18-.94,12.93,12.93,0,0,1,2.31-.54A8.66,8.66,0,0,1,1469.35,367.69Z" fill="#ff6464"/>
          </g>
          <g style="mix-blend-mode: multiply">
            <path d="M1472.9,370.6a7.16,7.16,0,0,1-.32,2.27,11.45,11.45,0,0,1-.82,2,11.74,11.74,0,0,1-1.2,1.8,7.05,7.05,0,0,1-1.71,1.53,7.2,7.2,0,0,1,.32-2.27,10.7,10.7,0,0,1,2-3.8A7.05,7.05,0,0,1,1472.9,370.6Z" fill="#ff6464"/>
          </g>
          <path d="M1589.64,361.57a30.47,30.47,0,0,1-9,4.67,55.66,55.66,0,0,1-10,2.4,54.8,54.8,0,0,1-10.15.52l-2.39-.1-1.3,2.33-1.37,2.49c-.54.78-1.06,1.57-1.58,2.37s-1.21,1.48-1.79,2.23l-2,2.11a41.34,41.34,0,0,1-9.42,6.92,43.36,43.36,0,0,1-23.87,5,26,26,0,0,0,6.12,2.33c0,.13,0,.25,0,.37-.63,7.17.74,16.51,7.73,20.39a11.44,11.44,0,0,0,14.13-2.94c1.86-2.42,2.64-5.48,3.32-8.45a100.48,100.48,0,0,0,1.92-14.05,37.42,37.42,0,0,0,5.35-4l2.56-2.49c.78-.9,1.53-1.83,2.29-2.75s1.37-2,2-3l.52-1a46.92,46.92,0,0,0,9.3-1.21,45.71,45.71,0,0,0,11-4.12,28.06,28.06,0,0,0,9.21-7.6,16.87,16.87,0,0,0,2.78-5.31,11.59,11.59,0,0,0,.33-5.77A15.06,15.06,0,0,1,1589.64,361.57Z" fill="#ff6464" style="mix-blend-mode: multiply"/>
        </g>
      </g>
      <g>
        <path d="M1478.61,1099.86c-4.45-4.2-6.76-8.67-6.72-13.27a16.46,16.46,0,0,1,.68-4.1,9.53,9.53,0,0,0,2.52,6c.59,3.32,2.77,6.63,6.38,9.81Z" fill="#7dea7d" stroke="#000" stroke-miterlimit="10" stroke-width="0.75"/>
        <path d="M1697.42,1145c.95,4,.68,7.53-.87,10.29-4.06,7.24-12.17,9.54-30.9,6.51a6.69,6.69,0,0,1-.76,2.27c-.18.37-4.58-.3-4.86,0a2,2,0,0,1-.72.52c20.94,3.58,35,.86,39.89-7.83,2-3.57,2.33-8,1-13Z" fill="#7dea7d" stroke="#000" stroke-miterlimit="10" stroke-width="0.75"/>
        <path d="M1705.05,1079c2.78,3.09,4.23,6.26,4.2,9.43-.06,8.31-6.06,14.23-23.92,20.61a6.86,6.86,0,0,1,.42,2.35c0,.42-4.16,1.95-4.25,2.36a1.89,1.89,0,0,1-.38.81c20.07-7,31.09-16.15,31.17-26.1,0-4.1-1.8-8.1-5.35-11.89Z" fill="#7dea7d" stroke="#000" stroke-miterlimit="10" stroke-width="0.75"/>
        <path d="M1533.85,1035.3c22.87,4.76,50.62,15.87,78.14,31.3s51.48,33.31,67.46,50.35c15.23,16.24,21.46,30.13,17.22,38.16A24.15,24.15,0,0,0,1701,1149c-.21-9-6.81-20.81-19.34-34.17-16.2-17.25-40.41-35.33-68.2-50.91s-55.84-26.81-79-31.63Z" fill="#3da03d" stroke="#000" stroke-miterlimit="10" stroke-width="0.75"/>
        <path d="M1472.22,1083.84c2-9.67,14.55-18.46,35.73-25,22.61-7,52.61-10.65,84.46-10.41s61.79,4.41,84.29,11.71c17.43,5.66,28.9,12.83,33.43,20.61a24.22,24.22,0,0,1-.88,7.41c-.15-9.09-12.31-18.25-33.48-25.13-22.22-7.22-51.83-11.32-83.38-11.56s-61.22,3.4-83.55,10.27c-21.47,6.6-33.83,15.65-33.9,24.82a10.61,10.61,0,0,0,1,4.65A23.17,23.17,0,0,1,1472.22,1083.84Z" fill="#3da03d" stroke="#000" stroke-miterlimit="10" stroke-width="0.75"/>
        <circle cx="1530.77" cy="1033.79" r="10.38" fill="#30c630" stroke="#000" stroke-miterlimit="10" stroke-width="0.75"/>
        <circle cx="1685.31" cy="1111.38" r="10.38" fill="#30c630" stroke="#000" stroke-miterlimit="10" stroke-width="0.75"/>
        <circle cx="1479.13" cy="1095.79" r="10.38" fill="#30c630" stroke="#000" stroke-miterlimit="10" stroke-width="0.75"/>
        <g clip-path="url(#h)">
          <g>
            <path d="M1595.44,1156.51a70.59,70.59,0,0,1-33.39-8.47c-34.52-18.63-47.61-62.14-29.16-97a70.51,70.51,0,0,1,96.06-29.45c34.52,18.62,47.6,62.14,29.16,97A70.82,70.82,0,0,1,1595.44,1156.51Z" fill="#71d871"/>
            <path d="M1595.56,1013.61a69.56,69.56,0,0,1,33.15,8.42c34.34,18.52,47.3,61.65,29,96.33a70.37,70.37,0,0,1-62.23,37.65,69.54,69.54,0,0,1-33.15-8.41c-34.34-18.53-47.3-61.65-29-96.33a70.38,70.38,0,0,1,62.23-37.66m0-1h0a71.35,71.35,0,0,0-63.11,38.19c-18.57,35.11-5.4,78.92,29.36,97.68a71,71,0,0,0,96.74-29.66c18.57-35.1,5.4-78.92-29.36-97.67a71,71,0,0,0-33.63-8.54Z"/>
          </g>
          <ellipse cx="1595.5" cy="1084.81" rx="70.49" ry="71.18" fill="none" stroke="#000" stroke-miterlimit="10" stroke-width="0.68"/>
        </g>
        <path d="M1483.89,1101.13a1.26,1.26,0,0,1,1.27.09c5.65,3.91,13.5,7.56,23.27,10.73,22.22,7.21,51.83,11.32,83.38,11.56s61.22-3.4,83.55-10.27c1.49-.46,3-.93,4.35-1.41a1.19,1.19,0,0,1,1.22.26,1.55,1.55,0,0,1,.44,1.7,1.76,1.76,0,0,1-1.11,1c-1.3.44-2.63.88-4,1.3-22.62,7-52.61,10.65-84.46,10.41s-61.79-4.41-84.3-11.71c-10.2-3.31-18.36-7.13-24.29-11.28a1.27,1.27,0,0,1,.17-2.17Z" fill="#7dea7d" stroke="#000" stroke-miterlimit="10" stroke-width="0.75"/>
        <circle cx="1664.5" cy="1163.88" r="10.38" fill="#30c630" stroke="#000" stroke-miterlimit="10" stroke-width="0.75"/>
        <path d="M1491.37,1042.47c-2.78,8.2,3.62,21.36,17.92,36.6,16,17,39.94,34.91,67.46,50.34s55.27,26.55,78.14,31.3c1.53.32,3,.61,4.49.86a1.19,1.19,0,0,1,.94.81,1.56,1.56,0,0,1-.43,1.71,1.79,1.79,0,0,1-1.48.39c-1.35-.24-2.73-.51-4.14-.8-23.16-4.81-51.22-16-79-31.62s-52-33.66-68.2-50.92c-16.57-17.66-22.81-32.55-17.56-41.91a16.51,16.51,0,0,1,2.57-3.27A9.6,9.6,0,0,0,1491.37,1042.47Z" fill="#7dea7d" stroke="#000" stroke-miterlimit="10" stroke-width="0.75"/>
        <path d="M1523.34,1033.07a.61.61,0,0,1-.65.4c-15.94-1.84-26.82.66-30.5,7.23a10.62,10.62,0,0,0-1.39,4.54,23.27,23.27,0,0,1,.32-8.27c5.23-6.06,16.17-8.3,31.66-6.54a.59.59,0,0,1,.47.32A3,3,0,0,1,1523.34,1033.07Z" fill="#3da03d" stroke="#000" stroke-miterlimit="10" stroke-width="0.75"/>
        <g style="mix-blend-mode: multiply">
          <path d="M1595,1086.61a9.91,9.91,0,0,1-2.81,2c-.51.26-1,.48-1.57.7s-1.08.38-1.63.56a19,19,0,0,1-6.9.68,15.21,15.21,0,0,1-6.76-2.14,11.12,11.12,0,0,1-4.46-5.34,29.33,29.33,0,0,0,5.72,2.7,27.78,27.78,0,0,0,5.82,1.07,51.36,51.36,0,0,0,6.11.15C1590.65,1086.92,1592.78,1086.86,1595,1086.61Z" fill="#71d871"/>
        </g>
        <g opacity="0.5" style="mix-blend-mode: multiply">
          <path d="M1600.55,1050.89a11.74,11.74,0,0,1,6.6-1.33,12.12,12.12,0,0,1,6.53,2.57,14.48,14.48,0,0,1,4,5.64,26.12,26.12,0,0,1,1,3.25,31.74,31.74,0,0,1,.27,3.34c-.55-1-1-2-1.43-2.95l-.77-1.4a15.05,15.05,0,0,0-.76-1.37,19.37,19.37,0,0,0-3.88-4.57,13.78,13.78,0,0,0-5.27-2.6A22,22,0,0,0,1600.55,1050.89Z" fill="#71d871"/>
        </g>
        <g opacity="0.5" style="mix-blend-mode: multiply">
          <path d="M1592.31,1047.07a21.79,21.79,0,0,0-5.08-3.77,14,14,0,0,0-5.67-1.59,19.81,19.81,0,0,0-5.94.83,13.47,13.47,0,0,0-1.47.51l-1.51.53c-1,.43-2,.88-3,1.25a31.19,31.19,0,0,1,2.42-2.31,24.74,24.74,0,0,1,2.88-1.78,14.38,14.38,0,0,1,6.79-1.5,12,12,0,0,1,6.57,2.43A11.71,11.71,0,0,1,1592.31,1047.07Z" fill="#71d871"/>
        </g>
        <g style="mix-blend-mode: multiply">
          <path d="M1567.2,1055.45a28.09,28.09,0,0,0,3.46,3.56,18.9,18.9,0,0,0,3.64,2.45,15.58,15.58,0,0,0,4.06,1.39,17.74,17.74,0,0,0,4.88.26,7.23,7.23,0,0,1-4.9,2.67,9.86,9.86,0,0,1-5.73-1,10.55,10.55,0,0,1-4.21-3.92A8.2,8.2,0,0,1,1567.2,1055.45Z" fill="#71d871"/>
        </g>
        <g style="mix-blend-mode: multiply">
          <path d="M1611.61,1076.22a8.13,8.13,0,0,1-5,2.38,10.38,10.38,0,0,1-5.68-.89,9.76,9.76,0,0,1-4.32-3.89,7.2,7.2,0,0,1-.91-5.51,17.38,17.38,0,0,0,3.2,3.68,15.68,15.68,0,0,0,3.6,2.35,18.86,18.86,0,0,0,4.17,1.35A28.77,28.77,0,0,0,1611.61,1076.22Z" fill="#71d871"/>
        </g>
      </g>
      <g opacity="0.65">
        <g>
          <path d="M379.14,997.21c6.08-.62,11.11.43,14.85,3.22,9.81,7.31,11.62,19.58,3.65,46.35.6-.09,2.64,1.21,3.16,1.55s-1.3,6.63-.89,7.09a2.9,2.9,0,0,1,.62,1.16c9.2-29.9,7.89-51-3.87-59.73-4.84-3.61-11.17-4.92-18.77-4Z" fill="#d87bff" stroke="#000" stroke-miterlimit="10"/>
          <path d="M159,1163.75c29.79,14.68,68.69,27,110.76,35,46.07,8.79,90.5,11.37,125.1,7.28,32.4-3.83,52.84-13.25,58.36-26.71a34.32,34.32,0,0,0-3.41-11.71,15.57,15.57,0,0,1,.18,7c-2.53,13.26-22.81,23.1-55.66,27-34.16,4-78.1,1.48-123.73-7.22-41.37-7.89-79.59-19.94-108.92-34.29Z" fill="#9414c9" stroke="#000" stroke-miterlimit="10"/>
          <path d="M114.69,1124.75c-3.21-5.21-4.46-10.19-3.59-14.77,2.29-12,12.54-19,40.11-23.51-.35-.5-.06-2.92,0-3.53s6.53-1.72,6.78-2.29a3,3,0,0,1,.76-1.07c-30.91,4.78-49.3,15.16-52,29.56-1.13,5.93.46,12.2,4.6,18.63Z" fill="#d87bff" stroke="#000" stroke-miterlimit="10"/>
          <circle cx="165.47" cy="1165.34" r="15.29" fill="#b408fc" stroke="#000" stroke-miterlimit="10"/>
          <path d="M187.9,1215.25c11.28-32.49,32.77-70.91,60.52-108.16s58.39-68.86,86.3-89c26.6-19.16,48.07-25.62,59-17.89a35.1,35.1,0,0,0-8-7.49c-13.17-1.4-31.67,6-53.56,21.76-28.26,20.37-59.26,52.3-87.27,89.92s-49.74,76.45-61.16,109.37Z" fill="#9414c9" stroke="#000" stroke-miterlimit="10"/>
          <circle cx="185.1" cy="1219.47" r="15.29" fill="#b408fc" stroke="#000" stroke-miterlimit="10"/>
          <path d="M154.7,1159.57a2,2,0,0,1-2.62.64l-1.31-.7c-23.74-12.8-38.46-26.23-43-38.69a35.28,35.28,0,0,1,3.23-10.5c-2.18,13.2,13,29.69,41.86,45.26.44.24.88.48,1.33.71a2,2,0,0,1,.71,2.91Z" fill="#9414c9" stroke="#000" stroke-miterlimit="10"/>
          <circle cx="151.86" cy="1083.06" r="15.29" fill="#b408fc" stroke="#000" stroke-miterlimit="10"/>
          <g clip-path="url(#i)">
            <ellipse cx="289.98" cy="1141.01" rx="102.97" ry="103.99" fill="#cd41ff" stroke="#000" stroke-miterlimit="10"/>
            <ellipse cx="289.98" cy="1141.01" rx="102.97" ry="103.99" fill="none" stroke="#000" stroke-miterlimit="10" stroke-width="0.99"/>
          </g>
          <g opacity="0.5" style="mix-blend-mode: multiply">
            <path d="M268.36,1102.89a17.36,17.36,0,0,1,6.34-7.66,17.61,17.61,0,0,1,9.9-3,19.93,19.93,0,0,1,5.17.74,22.33,22.33,0,0,1,4.7,2,24.3,24.3,0,0,1,7.44,6.51,85.27,85.27,0,0,0-8.67-3.84,34.51,34.51,0,0,0-4.32-1.23,24.57,24.57,0,0,0-4.33-.45,20.22,20.22,0,0,0-8.44,1.86A32,32,0,0,0,268.36,1102.89Z" fill="#9414c9"/>
          </g>
          <g opacity="0.5" style="mix-blend-mode: multiply">
            <path d="M250.75,1108.11a32.16,32.16,0,0,0-9.24-1.13,20.36,20.36,0,0,0-8.39,2.07,25.05,25.05,0,0,0-3.69,2.32,33.52,33.52,0,0,0-3.33,3,86.21,86.21,0,0,0-6.08,7.27,24.43,24.43,0,0,1,3.79-9.13,22.21,22.21,0,0,1,3.33-3.87,20.35,20.35,0,0,1,4.31-3,17.65,17.65,0,0,1,10.23-1.65A17.32,17.32,0,0,1,250.75,1108.11Z" fill="#9414c9"/>
          </g>
          <path d="M440,1145.42c11.19,10.38,16.21,20.63,14.42,30a24.7,24.7,0,0,1-2.07,5.76,14.11,14.11,0,0,0-2.05-9.43c0-7.18-4.73-15.19-13.72-23.42" fill="#d87bff" stroke="#000" stroke-miterlimit="10"/>
          <circle cx="440.8" cy="1150.75" r="15.29" fill="#b408fc" stroke="#000" stroke-miterlimit="10"/>
          <path d="M433.44,1142.66a1.94,1.94,0,0,0-.16-2.93,167,167,0,0,0-22.95-14.63c-30.67-16.54-72.93-30.48-119-39.26s-90.49-11.37-125.09-7.28c-2.12.25-4.17.53-6.18.83a2.52,2.52,0,0,0-1.86,1.24,2.27,2.27,0,0,0,.21,2.58,1.77,1.77,0,0,0,1.71.68c2.15-.33,4.37-.62,6.64-.89,34.16-4,78.1-1.48,123.74,7.22s87.44,22.49,117.71,38.81a162.83,162.83,0,0,1,22.26,14.19,1.92,1.92,0,0,0,2.52-.13Z" fill="#d87bff" stroke="#000" stroke-miterlimit="10"/>
          <circle cx="400.42" cy="1048.85" r="15.29" fill="#b408fc" stroke="#000" stroke-miterlimit="10"/>
          <path d="M190.32,1278.64c11.45,5.61,31.87-1.24,56.83-19.22,27.9-20.11,58.55-51.71,86.3-89s49.24-75.67,60.52-108.16q1.13-3.27,2.1-6.4a1.75,1.75,0,0,1,1.36-1.21,2.28,2.28,0,0,1,2.42,1,2.58,2.58,0,0,1,.28,2.23q-.9,2.9-1.94,5.89c-11.43,32.92-33.14,71.76-61.16,109.37s-59,69.55-87.27,89.92c-28.94,20.86-51.86,27.14-64.54,17.7a24.25,24.25,0,0,1-4.28-4.38A14.11,14.11,0,0,0,190.32,1278.64Z" fill="#d87bff" stroke="#000" stroke-miterlimit="10"/>
          <path d="M182.65,1230.18a.89.89,0,0,1,.46,1c-5.71,22.92-4.12,39.29,4.77,45.91a15.54,15.54,0,0,0,6.37,2.89,34.39,34.39,0,0,1-12-2c-7.86-8.78-9.06-25.19-3.56-47.47a.89.89,0,0,1,.56-.63A4.41,4.41,0,0,1,182.65,1230.18Z" fill="#9414c9" stroke="#000" stroke-miterlimit="10"/>
          <path d="M252.77,1155.43c-2.28-6.89,6.81-5.55,16.43-8.74s16.11-9.7,18.39-2.81-3.66,15-13.27,18.24S255.05,1162.31,252.77,1155.43Z" fill="#9414c9" style="mix-blend-mode: multiply"/>
          <g style="mix-blend-mode: multiply">
            <path d="M274.12,1128.6a12.22,12.22,0,0,1,3.46-7.29,15.65,15.65,0,0,1,7.18-4.33,14.51,14.51,0,0,1,8.46.21,10.79,10.79,0,0,1,6.3,5.13,24.38,24.38,0,0,0-7.06-1.27,22.13,22.13,0,0,0-6.39.75,25.9,25.9,0,0,0-6,2.55A38.32,38.32,0,0,0,274.12,1128.6Z" fill="#9414c9"/>
          </g>
          <g style="mix-blend-mode: multiply">
            <path d="M303.3,1120.63a7.28,7.28,0,0,1,5-3.17,6.39,6.39,0,0,1-2.16,2.11A6.63,6.63,0,0,1,303.3,1120.63Z" fill="#9414c9"/>
          </g>
          <g style="mix-blend-mode: multiply">
            <path d="M259,1133.82a39.05,39.05,0,0,0-7-2,25.9,25.9,0,0,0-6.53-.36,21.93,21.93,0,0,0-6.26,1.44,24.15,24.15,0,0,0-6.22,3.57,10.79,10.79,0,0,1,4.2-7,14.59,14.59,0,0,1,7.9-3,15.53,15.53,0,0,1,8.22,1.66A12.31,12.31,0,0,1,259,1133.82Z" fill="#9414c9"/>
          </g>
          <g style="mix-blend-mode: multiply">
            <path d="M230.09,1136.13a6.73,6.73,0,0,1-2.93.74,6.65,6.65,0,0,1-3-.5,6.39,6.39,0,0,1,2.92-.74A6.7,6.7,0,0,1,230.09,1136.13Z" fill="#9414c9"/>
          </g>
        </g>
      </g>
      <g>
        <path d="M84.12,302.9c-7.74,9-11.65,18.09-11.4,27.12.68,23.65,18.12,40.15,69.39,57.25-.82.85-1,5.54-1.06,6.74s11.95,5.3,12.23,6.46a5.73,5.73,0,0,0,1.14,2.27c-57.58-18.63-89.52-44.12-90.33-72.47-.34-11.68,4.62-23.17,14.5-34.18Z" fill="#c2e8ff" stroke="#000" stroke-miterlimit="10"/>
        <path d="M642,242.1c-64-18.23-148.74-26.84-238.59-24.26s-173.95,16-236.79,37.92c-59.9,20.87-94,47.7-93.88,73.58a68.74,68.74,0,0,1-2.94-21c12.42-22.42,44.68-43.53,94-60.69,63.66-22.15,148.68-35.79,239.39-38.4s176.36,6.13,241.2,24.59Z" fill="#2c91e5" stroke="#000" stroke-miterlimit="10"/>
        <path d="M692.76,378c.93,5.34,1.81,11.21,2.39,17.08,22.89,32.61,30.29,60.55,20.3,79.38C711,482.91,703,489.5,691.9,494.13c0,0-3.68,3.8,3.11,7.76,12.91-5.39,22.29-13.27,27.75-23.57C735.73,453.88,725.07,418.81,692.76,378Z" fill="#c2e8ff" stroke="#000" stroke-miterlimit="10"/>
        <g>
          <path d="M651.77,272.43l-1.17,0a30.09,30.09,0,0,1,1.13-60.15l1.18,0a30.09,30.09,0,0,1-1.14,60.15Z" fill="#72b8f7"/>
          <path d="M651.73,212.76l1.16,0a29.59,29.59,0,0,1-1.12,59.15l-1.16,0a29.59,29.59,0,0,1,1.12-59.15m0-1h0a30.59,30.59,0,0,0-1.15,61.15l1.19,0a30.59,30.59,0,0,0,1.16-61.15l-1.2,0Z"/>
        </g>
        <path d="M672.64,354.79C626,305.15,556,254.31,475.52,211.63s-161.79-72.13-229.07-83c-66.2-10.65-111.59-1.88-128.56,24.66-2.71,9.5-3.79,21.76,1.81,34.14-1.56-10.35-.39-19.51,3.67-27.16,13.38-25.21,57.76-33.77,121.77-23.47q3,.48,6,1c65.21,11.43,143.24,40.1,220.52,81.1,79.66,42.26,148.9,92.52,195,141.52a316.06,316.06,0,0,1,28.53,34.6c-.58-5.87-1.46-11.74-2.39-17.08Q683.81,366.66,672.64,354.79Z" fill="#2c91e5" stroke="#000" stroke-miterlimit="10"/>
        <g>
          <path d="M679.77,528.29l-1.18,0a30.09,30.09,0,0,1,1.14-60.15l1.17,0a30.09,30.09,0,0,1-1.13,60.15Z" fill="#72b8f7"/>
          <path d="M679.73,468.62l1.16,0a29.59,29.59,0,0,1-1.12,59.15l-1.16,0a29.59,29.59,0,0,1,1.12-59.15m0-1h0a30.59,30.59,0,0,0-1.16,61.15l1.2,0a30.59,30.59,0,0,0,1.15-61.15l-1.19,0Z"/>
        </g>
        <g clip-path="url(#j)">
          <ellipse cx="408.5" cy="321.55" rx="198.46" ry="200.43" fill="#92c9f2"/>
          <ellipse cx="408.5" cy="321.55" rx="198.46" ry="200.43" fill="none" stroke="#000" stroke-miterlimit="10" stroke-width="1.91"/>
        </g>
        <g>
          <path d="M142.29,424.06a30.09,30.09,0,0,1-.85-60.16h.88a30.09,30.09,0,0,1,.85,60.16Z" fill="#72b8f7"/>
          <path d="M142.32,364.39a29.59,29.59,0,0,1,.83,59.16h-.86a29.59,29.59,0,0,1-.84-59.16h.87m0-1h-.89a30.59,30.59,0,0,0,.86,61.16h.89a30.59,30.59,0,0,0-.86-61.16Z"/>
        </g>
        <path d="M739.71,316.33c-3.82,24.37-37.36,49.13-93.57,68.69-62.86,21.87-146.95,35.33-236.8,37.92s-174.58-6-238.59-24.26q-6.42-1.83-12.47-3.77a3.41,3.41,0,0,0-3.43.8,4.41,4.41,0,0,0-1.18,4.89,5,5,0,0,0,3.21,2.93q5.6,1.77,11.51,3.46c64.83,18.46,150.49,27.19,241.2,24.59S585.31,415.33,649,393.18c65.18-22.69,100.6-52,99.72-82.59A47.43,47.43,0,0,0,746.51,299S747,307.45,739.71,316.33Z" fill="#c2e8ff" stroke="#000" stroke-miterlimit="10"/>
        <path d="M671.45,250.36a1.72,1.72,0,0,0,1.11,1.86c42.65,16.42,66.82,37.12,67.44,58.54a30.42,30.42,0,0,1-2.5,13.32,66.55,66.55,0,0,0,10.11-21.32c-5.19-22.18-29.85-42.31-71.25-58.35a1.76,1.76,0,0,0-1.62.19A8.49,8.49,0,0,0,671.45,250.36Z" fill="#2c91e5" stroke="#000" stroke-miterlimit="10"/>
        <g>
          <ellipse cx="398.35" cy="266.39" rx="40.82" ry="28.85" transform="translate(60.17 605.92) rotate(-78.89)" fill="#fff"/>
          <path d="M396.37,331.35c1.34,1,2.75,1.72,4.1,2.54s2.69,1.59,4,2.35c2.67,1.54,5.27,3.05,7.87,4.49,5.19,2.88,10.27,5.56,15.41,7.84a85.31,85.31,0,0,0,15.76,5.34,74.2,74.2,0,0,0,8.51,1.33c3,.26,6,.27,9.41.34a26.71,26.71,0,0,1-8.42,5.51,34.21,34.21,0,0,1-10,2.3,37.7,37.7,0,0,1-10.34-.67,44.16,44.16,0,0,1-9.77-3.11,52.81,52.81,0,0,1-16.33-11.42,49.41,49.41,0,0,1-6.17-7.72,37.36,37.36,0,0,1-2.42-4.34A16.75,16.75,0,0,1,396.37,331.35Z" fill="#60a7e8"/>
          <g>
            <path d="M394.49,307.33a21,21,0,0,1-4.1-.4c-15.88-3.12-25.23-23.84-20.84-46.2,3.95-20.11,18-35.28,32.67-35.28a21.75,21.75,0,0,1,4.1.4c7.72,1.52,14.14,7.18,18.07,16s4.89,19.45,2.77,30.25C423.2,292.17,409.16,307.33,394.49,307.33Z" fill="#fff"/>
            <path d="M402.22,226a20.85,20.85,0,0,1,4,.39c15.64,3.07,24.79,23.49,20.44,45.61-4,20.24-17.86,34.88-32.17,34.88a20.09,20.09,0,0,1-4-.39C374.85,303.37,365.7,283,370,260.83,374,240.6,387.91,226,402.22,226m0-1v0h0c-14.91,0-29.16,15.34-33.16,35.69-4.44,22.62,5.08,43.61,21.23,46.78a21.13,21.13,0,0,0,4.2.41c14.91,0,29.16-15.34,33.16-35.68,2.14-10.9,1.14-21.75-2.8-30.55s-10.54-14.69-18.43-16.24a21.9,21.9,0,0,0-4.2-.41Z"/>
          </g>
          <g clip-path="url(#k)">
            <ellipse cx="407.2" cy="272.22" rx="28" ry="22.5" transform="translate(11.15 560.42) rotate(-69.81)" fill="url(#l)"/>
          </g>
          <g>
            <path d="M489,320.88a21.58,21.58,0,0,1-4.1-.39c-7.73-1.52-14.15-7.19-18.08-15.95s-4.88-19.46-2.76-30.25C468,254.17,482,239,496.71,239a21.77,21.77,0,0,1,4.11.4c15.88,3.12,25.22,23.85,20.83,46.2C517.7,305.72,503.66,320.88,489,320.88Z" fill="#fff"/>
            <path d="M496.71,239.5a21,21,0,0,1,4,.39c15.63,3.07,24.79,23.5,20.44,45.62-4,20.23-17.87,34.87-32.17,34.87a20.18,20.18,0,0,1-4-.39c-15.63-3.07-24.79-23.49-20.44-45.61,4-20.23,17.87-34.88,32.17-34.88m0-1v0h0c-14.9,0-29.15,15.35-33.15,35.69-4.45,22.62,5.08,43.61,21.23,46.79a21.89,21.89,0,0,0,4.2.4c14.9,0,29.16-15.34,33.15-35.68,4.45-22.63-5.08-43.62-21.23-46.79a21.88,21.88,0,0,0-4.19-.41Z"/>
          </g>
          <g clip-path="url(#m)">
            <ellipse cx="501.98" cy="286.83" rx="28" ry="22.5" transform="translate(59.5 658.95) rotate(-69.81)" fill="url(#n)"/>
          </g>
          <g clip-path="url(#o)">
            <ellipse cx="398.35" cy="266.39" rx="40.82" ry="28.85" transform="translate(60.17 605.92) rotate(-78.89)" fill="#fff"/>
          </g>
          <g clip-path="url(#m)">
            <ellipse cx="518.02" cy="271.33" rx="13.78" ry="12.98" transform="translate(151.92 727.33) rotate(-78.89)" fill="#fff"/>
          </g>
          <g clip-path="url(#k)">
            <path d="M368.94,256s27.54-31.43,58.32-13.72l-1.05-17.43L401.9,212.74l-19.84,7.61-11.41,10.72-3.15,20.16Z" fill="#92c9f2" opacity="0.3" style="mix-blend-mode: multiply"/>
          </g>
          <g clip-path="url(#r)">
            <path d="M463.43,269.56s27.54-31.42,58.32-13.71l-1-17.43-24.3-12.14-19.85,7.62-11.4,10.72L462,264.77Z" fill="#92c9f2" opacity="0.3" style="mix-blend-mode: multiply"/>
          </g>
        </g>
        <path d="M117.89,153.33c-.65,1-1.27,2-1.83,3.1-15.36,29,2.44,72.83,50.12,123.54,46.68,49.63,116.69,100.47,197.13,143.15,78,41.41,156.92,70.37,223,81.94,2,.36,4.06.7,6.07,1,30.86,5,57.19,5.71,78.24,2.4a4.15,4.15,0,0,0,3.51-4.24v0a4.14,4.14,0,0,0-4.76-4c-20.18,3.19-45.79,2.49-75.67-2.31-66.4-10.68-146.84-39.84-226.5-82.11s-148.91-92.52-195-141.51c-30.94-32.91-48.95-63-52.51-86.83C114.1,175.09,115.18,162.83,117.89,153.33Z" fill="#c2e8ff" stroke="#000" stroke-miterlimit="10"/>
      </g>
      <g>
        <path d="M948.18,1256c-5.06,1.67-9.43,1.58-12.94-.35a14.2,14.2,0,0,1-2.86-2.23,8.27,8.27,0,0,0,5.68.59c2.78.92,6.22.63,10.15-.81Z" fill="gray" stroke="#000" stroke-miterlimit="10" stroke-width="0.5"/>
        <path d="M1084.17,1200.59c1.34,3.36,1.56,6.38.58,9-2.56,6.76-9.24,9.78-25.75,9.6a6,6,0,0,1-.36,2c-.11.35-4,.34-4.18.64a1.61,1.61,0,0,1-.56.54c18.49.38,30.25-3.79,33.32-11.89,1.26-3.34,1-7.15-.77-11.32Z" fill="gray" stroke="#000" stroke-miterlimit="10" stroke-width="0.5"/>
        <path d="M1026.11,1074.13c3.52-.84,6.55-.63,9,.7,6.33,3.5,8.37,10.54,5.84,26.85a5.78,5.78,0,0,1,2,.66c.33.15-.23,4,0,4.22a1.77,1.77,0,0,1,.46.63c3-18.24.54-30.48-7-34.67-3.13-1.72-6.94-2-11.31-.84Z" fill="gray" stroke="#000" stroke-miterlimit="10" stroke-width="0.5"/>
        <path d="M929.21,1127.3c20.3,1.14,45.62,7.11,71.3,16.84s48.61,22,64.56,34.6c15.21,12,22.37,23.16,19.75,30.62a20.75,20.75,0,0,0,3-5.78c-1.34-7.72-8.54-17-21.06-26.91-16.16-12.76-39.34-25.19-65.27-35s-51.52-15.86-72.08-17Z" fill="#2c4159" stroke="#000" stroke-miterlimit="10" stroke-width="0.5"/>
        <path d="M933.27,1254.3c-6.55-5.58-8.09-18.79-4.29-37.7,4.06-20.19,13.67-44.67,27.06-68.94s29-45.45,43.92-59.64c11.55-11,21.8-16.79,29.62-17a20.93,20.93,0,0,1,5.31,3.75c-7-3.65-19.07,1.85-33.11,15.2-14.74,14-30.16,35-43.42,59s-22.79,48.25-26.79,68.18c-3.85,19.17-2.05,32.37,4.93,36.23a9.28,9.28,0,0,0,4,1.18A20.53,20.53,0,0,1,933.27,1254.3Z" fill="#2c4159" stroke="#000" stroke-miterlimit="10" stroke-width="0.5"/>
        <circle cx="926.36" cy="1126.4" r="9.04" fill="#b3b3b3" stroke="#000" stroke-miterlimit="10" stroke-width="0.5"/>
        <circle cx="1042.71" cy="1102.67" r="9.04" fill="#b3b3b3" stroke="#000" stroke-miterlimit="10" stroke-width="0.5"/>
        <circle cx="945.28" cy="1253.96" r="9.04" fill="#b3b3b3" stroke="#000" stroke-miterlimit="10" stroke-width="0.5"/>
        <g clip-path="url(#s)">
          <g>
            <path d="M988.85,1224.5a61.16,61.16,0,0,1-29-7.35c-29.95-16.16-41.3-53.91-25.3-84.15a61.2,61.2,0,0,1,83.34-25.55c29.94,16.16,41.29,53.91,25.29,84.15A61.44,61.44,0,0,1,988.85,1224.5Z" fill="#b3b3b3"/>
            <path d="M989,1100.6a60.41,60.41,0,0,1,28.73,7.29c29.75,16,41,53.43,25.09,83.48A61,61,0,0,1,988.85,1224a60.3,60.3,0,0,1-28.73-7.29c-29.75-16-41-53.43-25.09-83.48A61,61,0,0,1,989,1100.6m0-1h0a61.94,61.94,0,0,0-54.81,33.17c-16.13,30.48-4.69,68.53,25.5,84.82a61.7,61.7,0,0,0,84-25.75c16.12-30.49,4.68-68.54-25.51-84.83a61.66,61.66,0,0,0-29.2-7.41Z"/>
          </g>
          <ellipse cx="988.91" cy="1162.3" rx="61.08" ry="61.69" fill="none" stroke="#000" stroke-miterlimit="10" stroke-width="0.59"/>
        </g>
        <path d="M951.34,1252.54a1.08,1.08,0,0,1,.6-.94c5.33-2.7,11.38-7.2,17.86-13.36,14.73-14,30.15-35,43.42-59S1036,1131,1040,1111.06c.27-1.34.51-2.64.73-3.92a1,1,0,0,1,.71-.82,1.33,1.33,0,0,1,1.47.37,1.48,1.48,0,0,1,.35,1.28c-.2,1.18-.42,2.38-.67,3.61-4,20.19-13.66,44.67-27.06,68.94s-29,45.45-43.91,59.64c-6.77,6.43-13.07,11.1-18.7,13.91a1.1,1.1,0,0,1-1.59-1Z" fill="gray" stroke="#000" stroke-miterlimit="10" stroke-width="0.5"/>
        <circle cx="1058.28" cy="1221.06" r="9.04" fill="#b3b3b3" stroke="#000" stroke-miterlimit="10" stroke-width="0.5"/>
        <path d="M893.58,1139c-1.33,7.42,5.88,17.92,20.15,29.18,16,12.59,38.89,24.88,64.57,34.61s51,15.7,71.29,16.83c1.36.08,2.69.13,4,.16a1,1,0,0,1,.91.57,1.34,1.34,0,0,1-.15,1.53,1.51,1.51,0,0,1-1.22.53c-1.19,0-2.41-.08-3.66-.15-20.56-1.15-46.16-7.19-72.09-17s-49.1-22.25-65.27-35c-16.55-13.06-23.84-25.06-20.53-33.8a14.4,14.4,0,0,1,1.79-3.14A8.32,8.32,0,0,0,893.58,1139Z" fill="gray" stroke="#000" stroke-miterlimit="10" stroke-width="0.5"/>
        <path d="M919.87,1126.74a.52.52,0,0,1-.5.43c-14,.48-23,4-25.32,10.16a9.37,9.37,0,0,0-.61,4.09,20.53,20.53,0,0,1-.79-7.16c3.72-5.89,12.85-9.23,26.4-9.73a.55.55,0,0,1,.45.22A2.55,2.55,0,0,1,919.87,1126.74Z" fill="#2c4159" stroke="#000" stroke-miterlimit="10" stroke-width="0.5"/>
        <g style="mix-blend-mode: multiply">
          <path d="M1001.22,1171.79a8.51,8.51,0,0,1-1.17,2.77,16.08,16.08,0,0,1-1.8,2.39,16.6,16.6,0,0,1-4.8,3.65,13.31,13.31,0,0,1-6,1.49,9.57,9.57,0,0,1-5.73-1.93,26.23,26.23,0,0,0,5.46-.6,24.3,24.3,0,0,0,4.8-1.85,48.23,48.23,0,0,0,4.61-2.68C998.11,1174,999.67,1173,1001.22,1171.79Z" fill="#ccc"/>
        </g>
        <g opacity="0.5" style="mix-blend-mode: multiply">
          <path d="M989.05,1142.79a10.27,10.27,0,0,1,4.3-4,10.41,10.41,0,0,1,6-1.06,12.37,12.37,0,0,1,5.57,2.34,23,23,0,0,1,2.2,2c.6.78,1.2,1.54,1.71,2.36-.86-.49-1.63-1-2.4-1.55l-1.21-.68a11.66,11.66,0,0,0-1.19-.67,17.43,17.43,0,0,0-4.95-1.63,12.32,12.32,0,0,0-5.1.48A19.23,19.23,0,0,0,989.05,1142.79Z" fill="#ccc"/>
        </g>
        <g opacity="0.5" style="mix-blend-mode: multiply">
          <path d="M981.2,1143.71a19.23,19.23,0,0,0-5.48-.49,12.32,12.32,0,0,0-4.92,1.4,17.3,17.3,0,0,0-4,3.32,12.76,12.76,0,0,0-.87,1l-.88,1.08c-.52.77-1,1.55-1.67,2.31.18-1,.46-1.87.74-2.82a23.16,23.16,0,0,1,1.33-2.63,12.43,12.43,0,0,1,4.35-4.2,10.37,10.37,0,0,1,6-1.19A10.15,10.15,0,0,1,981.2,1143.71Z" fill="#ccc"/>
        </g>
        <g style="mix-blend-mode: multiply">
          <path d="M966.4,1161.35a24.84,24.84,0,0,0,4.19,1.07,16.41,16.41,0,0,0,3.81.16,13.72,13.72,0,0,0,3.65-.82,15.2,15.2,0,0,0,3.73-2,6.26,6.26,0,0,1-2.42,4.21,8.44,8.44,0,0,1-4.7,1.87,9.06,9.06,0,0,1-4.91-1A7.08,7.08,0,0,1,966.4,1161.35Z" fill="#ccc"/>
        </g>
        <g style="mix-blend-mode: multiply">
          <path d="M1008.79,1156.54a7.07,7.07,0,0,1-2.62,4,9.13,9.13,0,0,1-4.62,1.93,8.61,8.61,0,0,1-5-.92,6.27,6.27,0,0,1-3.18-3.67,15.25,15.25,0,0,0,4.05,1.27,13.85,13.85,0,0,0,3.74.1,16.56,16.56,0,0,0,3.71-.9A24.64,24.64,0,0,0,1008.79,1156.54Z" fill="#ccc"/>
        </g>
      </g>
    </g>
  </g>
</svg>
