<svg xmlns="http://www.w3.org/2000/svg" xmlns:xlink="http://www.w3.org/1999/xlink" viewBox="0 0 1440 1920">
  <defs>
    <clipPath id="a">
      <ellipse cx="338.48" cy="1321.04" rx="154.45" ry="155.98" fill="none"/>
    </clipPath>
    <clipPath id="b">
      <ellipse cx="356.23" cy="1287.42" rx="31.69" ry="22.4" transform="translate(-971.28 1436.05) rotate(-80.92)" fill="none"/>
    </clipPath>
    <linearGradient id="c" x1="351.98" y1="1296.78" x2="372.94" y2="1260.48" gradientUnits="userSpaceOnUse">
      <stop offset="0" stop-color="#ff3700"/>
      <stop offset="1" stop-color="#f7931e"/>
    </linearGradient>
    <clipPath id="d">
      <ellipse cx="283.73" cy="1271.97" rx="31.69" ry="22.4" transform="translate(-1017.07 1351.45) rotate(-80.92)" fill="none"/>
    </clipPath>
    <linearGradient id="e" x1="279.65" y1="1282.78" x2="300.6" y2="1246.48" xlink:href="#c"/>
    <clipPath id="f">
      <ellipse cx="1085.22" cy="789.06" rx="162.47" ry="159.47" transform="translate(110.01 1710.63) rotate(-79.4)" fill="none"/>
    </clipPath>
    <linearGradient id="g" x1="347.72" y1="1441.23" x2="382.92" y2="1380.26" gradientTransform="translate(710.88 -660.38) rotate(-2.15)" gradientUnits="userSpaceOnUse">
      <stop offset="0" stop-color="#db1b16"/>
      <stop offset="1" stop-color="#ff605c"/>
    </linearGradient>
    <clipPath id="h">
      <ellipse cx="645.5" cy="1653.84" rx="70.49" ry="71.18" fill="none"/>
    </clipPath>
    <clipPath id="i">
      <ellipse cx="1094.98" cy="1469.04" rx="102.97" ry="103.99" fill="none"/>
    </clipPath>
    <clipPath id="j">
      <ellipse cx="430.82" cy="343.59" rx="198.46" ry="200.43" transform="translate(-88.37 158.94) rotate(-19)" fill="none"/>
    </clipPath>
    <clipPath id="k">
      <ellipse cx="403.71" cy="296.65" rx="28.85" ry="40.82" transform="translate(-41.75 67.41) rotate(-9.08)" fill="none"/>
    </clipPath>
    <linearGradient id="l" x1="396.66" y1="331.22" x2="423.39" y2="284.91" gradientUnits="userSpaceOnUse">
      <stop offset="0" stop-color="#4079bb"/>
      <stop offset="1" stop-color="#63a8f2"/>
    </linearGradient>
    <clipPath id="m">
      <ellipse cx="497.08" cy="276.75" rx="28.85" ry="40.82" transform="translate(-37.44 81.9) rotate(-9.08)" fill="none"/>
    </clipPath>
    <linearGradient id="n" x1="490.66" y1="312.22" x2="517.39" y2="265.91" xlink:href="#l"/>
    <clipPath id="o">
      <ellipse cx="425.98" cy="278.56" rx="12.98" ry="13.78" transform="translate(-38.62 70.7) rotate(-9.08)" fill="none"/>
    </clipPath>
    <clipPath id="r">
      <ellipse cx="497.08" cy="276.75" rx="28.85" ry="40.82" transform="translate(-37.44 81.9) rotate(-9.08)" fill="none"/>
    </clipPath>
    <clipPath id="s">
      <ellipse cx="579.91" cy="942.33" rx="61.08" ry="61.69" fill="none"/>
    </clipPath>
  </defs>
  <title>portrait</title>
  <g style="isolation: isolate">
    <g>
      <g>
        <path d="M543.88,1173.47c8.82,2.6,15.21,6.92,18.83,12.92,9.5,15.73,5,33.83-21.26,66.54.89.21,3,3.19,3.53,4s-5.58,8.48-5.28,9.36a4.21,4.21,0,0,1,.22,2c29.77-36.36,39.92-66.42,28.54-85.28-4.69-7.76-12.75-13.18-23.83-16.22Z" fill="#ffdd50" stroke="#000" stroke-miterlimit="10"/>
        <path d="M572.38,1358.72c4.46,8,6,15.6,4.36,22.41-4.26,17.87-20.13,27.65-61.81,32.53.48.77-.11,4.37-.26,5.29s-9.93,2.13-10.33,3a4.4,4.4,0,0,1-1.22,1.55c46.72-5,75-19.35,80.15-40.78,2.1-8.82.16-18.34-5.61-28.27Z" fill="#ffdd50" stroke="#000" stroke-miterlimit="10"/>
        <path d="M154.05,1368.12c34.14-38.79,85.86-80,145.61-116.07s120.33-62.61,170.57-74.72c47.88-11.54,81.4-8.33,92.21,8.61a53,53,0,0,0-6.93-15c-17.53-9.42-47.46-9.66-86.86-.15-50.88,12.28-112.12,39.09-172.45,75.49S183.6,1324.39,149,1363.68Z" fill="#faa41a" stroke="#000" stroke-miterlimit="10"/>
        <g>
          <path d="M138.79,1403.86a23.45,23.45,0,1,1,13.43-4.23,23.53,23.53,0,0,1-13.43,4.23Z" fill="#fdb913"/>
          <path d="M138.75,1357.41a23,23,0,1,1-13.14,4.15,23,23,0,0,1,13.14-4.15m0-1a24,24,0,1,0,19.67,10.24,23.86,23.86,0,0,0-19.67-10.24Z"/>
        </g>
        <path d="M68.06,1253.48c9.21-19.82,40.54-32.55,89.43-36.07,52.2-3.76,118.7,3.18,187.24,19.53s131,40.2,175.88,67.12c34.76,20.86,55.93,42,61.82,61a53.43,53.43,0,0,1-5.57,15.53c4.18-19.65-17.48-45.45-59.7-70.8-44.3-26.6-106.1-50.15-174-66.35S209.51,1220.39,158,1224.1c-49.56,3.57-80.69,16.94-85.4,36.66a23.62,23.62,0,0,0-.21,10.52A51.58,51.58,0,0,1,68.06,1253.48Z" fill="#faa41a" stroke="#000" stroke-miterlimit="10"/>
        <g>
          <path d="M513.74,1442.2a23.48,23.48,0,1,1,22.81-18,23.45,23.45,0,0,1-22.81,18Z" fill="#fdb913"/>
          <path d="M513.7,1395.75a23,23,0,1,1-22.33,17.64,22.92,22.92,0,0,1,22.33-17.64m0-1a24,24,0,1,0,5.58.66,23.89,23.89,0,0,0-5.58-.66Z"/>
        </g>
        <g clip-path="url(#a)">
          <ellipse cx="338.48" cy="1321.04" rx="154.45" ry="155.98" fill="#fdb913"/>
          <ellipse cx="338.48" cy="1321.04" rx="154.45" ry="155.98" fill="none" stroke="#000" stroke-miterlimit="10" stroke-width="1.49"/>
        </g>
        <path d="M71.91,1265c-1,19.13,20.62,43.26,60.25,67,44.31,26.58,106.1,50.15,174,66.35s133.67,23.07,185.2,19.36q5.19-.37,10.09-.88a2.61,2.61,0,0,1,2.47,1.15,3.4,3.4,0,0,1,.12,3.9,3.86,3.86,0,0,1-2.9,1.72c-3,.3-6.12.58-9.29.81-52.21,3.76-118.7-3.18-187.24-19.54s-131-40.19-175.89-67.12c-45.95-27.57-68.22-55.48-62.71-78.58a36.62,36.62,0,0,1,3.5-8.5S67.75,1257.14,71.91,1265Z" fill="#ffdd50" stroke="#000" stroke-miterlimit="10"/>
        <g>
          <path d="M544.17,1280.86a23.48,23.48,0,1,1,12.1-3.38,23.31,23.31,0,0,1-12.1,3.38Z" fill="#fdb913"/>
          <path d="M544.12,1234.41a23,23,0,1,1-11.84,3.31,22.95,22.95,0,0,1,11.84-3.31m0-1A24,24,0,1,0,564.67,1245a23.91,23.91,0,0,0-20.55-11.59Z"/>
        </g>
        <path d="M121.41,1457.65c12.73,14.31,45,16.39,90,5.54,50.23-12.12,110.81-38.65,170.57-74.71s111.46-77.28,145.6-116.07q3.44-3.9,6.57-7.7a2.61,2.61,0,0,1,2.57-.92,3.41,3.41,0,0,1,2.82,2.7,3.88,3.88,0,0,1-.86,3.26c-1.94,2.34-3.95,4.7-6.06,7.09-34.58,39.29-86.85,81-147.18,117.38s-121.57,63.22-172.45,75.5c-52.1,12.57-87.55,8.29-99.82-12a36.54,36.54,0,0,1-3.46-8.52S112.9,1454.93,121.41,1457.65Z" fill="#ffdd50" stroke="#000" stroke-miterlimit="10"/>
        <path d="M138.27,1385.9a1.34,1.34,0,0,1,.06,1.68c-21,28.64-28,52.31-19.45,66.56a23.68,23.68,0,0,0,7.23,7.65,51.55,51.55,0,0,1-15.55-9.68c-5.94-16.66,1.71-40.17,22-68a1.3,1.3,0,0,1,1.14-.56A6.61,6.61,0,0,1,138.27,1385.9Z" fill="#faa41a" stroke="#000" stroke-miterlimit="10"/>
        <g>
          <path d="M353.53,1319a16.34,16.34,0,0,1-2.62-.21c-6.08-1-11.24-5.21-14.55-11.94s-4.34-15-3-23.46c2.59-16.18,13.37-28.39,25.08-28.39a16.53,16.53,0,0,1,2.62.21c6.07,1,11.24,5.21,14.54,11.94s4.35,15,3,23.46C376,1306.79,365.24,1319,353.53,1319Z" fill="#fff"/>
          <path d="M358.45,1255.5a16.82,16.82,0,0,1,2.54.2c12.22,2,19.88,17.55,17.12,34.84-2.57,16.08-13.26,28-24.58,28a16.72,16.72,0,0,1-2.54-.2c-12.22-2-19.89-17.55-17.12-34.83,2.57-16.09,13.26-28,24.58-28m0-1c-12,0-22.95,12.39-25.57,28.81-1.37,8.56-.29,17,3,23.76s8.68,11.22,14.92,12.21a16.3,16.3,0,0,0,2.7.22c12,0,22.94-12.38,25.57-28.81,2.84-17.8-5.21-33.94-18-36a16.3,16.3,0,0,0-2.7-.22Z"/>
        </g>
        <g clip-path="url(#b)">
          <ellipse cx="362.46" cy="1278.63" rx="18.3" ry="21.76" fill="url(#c)"/>
          <ellipse cx="378.23" cy="1281.9" rx="10.7" ry="10.08" transform="translate(-947.29 1453.14) rotate(-80.92)" fill="#fff"/>
        </g>
        <path d="M341,1265.85c5.28-7.24,12.64-11.33,20-10.15,10.39,1.66,17.48,13.2,17.67,27.24C371.62,1276.23,358.29,1266.26,341,1265.85Z" fill="#fdb913" opacity="0.3" style="mix-blend-mode: multiply"/>
        <g>
          <path d="M281,1303.55a16.53,16.53,0,0,1-2.62-.21c-6.07-1-11.24-5.21-14.55-11.94s-4.34-15-3-23.47c2.58-16.18,13.36-28.38,25.07-28.38a16.34,16.34,0,0,1,2.62.21c12.47,2,20.34,17.87,17.54,35.4-2.59,16.18-13.37,28.39-25.08,28.39Z" fill="#fff"/>
          <path d="M286,1240.05a16.82,16.82,0,0,1,2.54.2c12.22,2,19.89,17.55,17.12,34.83-2.57,16.09-13.26,28-24.58,28a15.64,15.64,0,0,1-2.54-.21c-12.22-1.95-19.88-17.54-17.12-34.83,2.57-16.08,13.26-28,24.58-28m0-1c-11.95,0-22.94,12.38-25.57,28.81-2.84,17.8,5.21,33.94,17.95,36a17.46,17.46,0,0,0,2.7.22c12,0,23-12.39,25.57-28.81,2.85-17.8-5.21-33.94-18-36a17.44,17.44,0,0,0-2.7-.21Z"/>
        </g>
        <g clip-path="url(#d)">
          <ellipse cx="290.13" cy="1264.63" rx="18.3" ry="21.76" fill="url(#e)"/>
          <ellipse cx="305.57" cy="1266.61" rx="10.7" ry="10.08" transform="translate(-993.39 1368.5) rotate(-80.92)" fill="#fff"/>
        </g>
        <path d="M268.49,1250.36c5.27-7.21,12.62-11.29,20-10.11,10.48,1.68,17.6,13.38,17.68,27.57C299.29,1261.17,285.94,1250.93,268.49,1250.36Z" fill="#fdb913" opacity="0.3" style="mix-blend-mode: multiply"/>
        <g>
          <path d="M310.57,1366.93a49.45,49.45,0,0,1-10.3-1.07,53,53,0,0,1-27.23-15.6c-6.79-7.33-10.08-15.28-8.81-21.26.82-3.87,3.35-5.75,7.74-5.75s10.61,1.88,17.71,4.07c5.36,1.64,11.43,3.5,17.74,4.84s12.61,2.1,18.17,2.77c10.49,1.26,18.77,2.26,21.68,6.33a6.65,6.65,0,0,1,.9,5.53C345.9,1357.52,328.33,1366.93,310.57,1366.93Z" fill="#f77331"/>
          <path d="M272,1323.75c7.75,0,20.73,5.8,35.34,8.9,21.89,4.64,42.87,2.24,40.37,14-2.11,10-18.79,19.74-37.11,19.74a49.18,49.18,0,0,1-10.19-1c-21.89-4.64-38.16-24.49-35.66-36.28.83-3.91,3.39-5.35,7.25-5.35m0-1v0h0c-4.66,0-7.35,2-8.23,6.14-1.3,6.15,2,14.26,8.93,21.71a53.44,53.44,0,0,0,27.5,15.75,50.34,50.34,0,0,0,10.4,1.08c18,0,35.78-9.6,38.09-20.54a7.18,7.18,0,0,0-1-5.92c-3-4.25-11.42-5.26-22-6.54-5.55-.67-11.84-1.43-18.13-2.76s-12.35-3.19-17.69-4.83c-7.15-2.2-13.32-4.09-17.86-4.09Z"/>
        </g>
        <path d="M284.45,1358.94a50.65,50.65,0,0,0,15.93,6.44,52.12,52.12,0,0,0,34.65-5C328.39,1354.3,307.45,1338.76,284.45,1358.94Z" fill="#faa41a"/>
        <path d="M342.27,1343.47l.83-3.94a3.39,3.39,0,0,0,.07-.7c-7.11-3.12-21.28-3.09-35.86-6.18-14.21-3-26.87-8.58-34.69-8.89a3.27,3.27,0,0,0-.27.78l-.83,3.94a3.18,3.18,0,0,0,2.46,3.78l64.51,13.67A3.18,3.18,0,0,0,342.27,1343.47Z" fill="#fff"/>
      </g>
      <g>
        <path d="M843.53,902c-1.95,9.6-1.07,17.78,2.78,24.19,10.09,16.79,29.36,21.62,73.3,13.16-.25.94,1.51,4.41,2,5.29s10.77-1,11.45-.3a4.6,4.6,0,0,0,1.74,1.18c-49.11,9.92-82.5,4.49-94.6-15.65-5-8.28-6.06-18.59-3.4-30.54Z" fill="#ff605c" stroke="#000" stroke-miterlimit="10"/>
        <path d="M861,635.45c-9.29,3.12-15.94,8-19.56,14.51-9.49,17.14-4,36.24,25.29,70-.94.26-3.07,3.52-3.61,4.36s6.28,8.81,6,9.76a4.66,4.66,0,0,0-.15,2.1C835.81,698.67,823.8,667,835.18,646.5c4.69-8.46,13.06-14.56,24.75-18.23Z" fill="#ff605c" stroke="#000" stroke-miterlimit="10"/>
        <path d="M1221.41,631.73c-53.58,12.82-118.22,41-182,79.31s-119,82.15-155.49,123.45C849.15,873.85,835.45,907,846,925.68a56.64,56.64,0,0,1-10.67-14c-.14-21.22,14.57-49.55,43.19-81.93,37-41.82,92.77-86.16,157.17-124.85s129.75-67.15,184-80.13Z" fill="#ea3d3d" stroke="#000" stroke-miterlimit="10"/>
        <circle cx="1228.57" cy="627.93" r="24.49" fill="#ef1d18" stroke="#000" stroke-miterlimit="10"/>
        <path d="M1309.51,858.2a264.85,264.85,0,0,0-25.46-30.78c-37.91-40-94.63-81.86-159.73-117.91s-130.69-62-184.69-72.86c-51.48-10.4-87.07-5.66-97.91,12.83a56.68,56.68,0,0,1,6.78-16.24c18.31-10.74,50.19-12.17,92.55-3.6,54.69,11.07,121,37.21,186.73,73.61S1250.85,782,1289.25,822.49a274,274,0,0,1,26.18,31.66Z" fill="#ea3d3d" stroke="#000" stroke-miterlimit="10"/>
        <circle cx="1314.82" cy="861.4" r="24.49" fill="#ef1d18" stroke="#000" stroke-miterlimit="10"/>
        <path d="M1322,874.51a3,3,0,0,0-.72,3.55c7.72,16.19,9.12,29.79,3.68,39.62a25.05,25.05,0,0,1-7.4,8.43,55,55,0,0,0,16.19-10.92c3.51-11.14,1.37-24.86-6.17-40.55a3,3,0,0,0-4.62-1Z" fill="#ea3d3d" stroke="#000" stroke-miterlimit="10"/>
        <circle cx="864.04" cy="724.87" r="24.49" fill="#ef1d18" stroke="#000" stroke-miterlimit="10"/>
        <g clip-path="url(#f)">
          <ellipse cx="1085.22" cy="789.06" rx="162.47" ry="159.47" transform="translate(110.01 1710.63) rotate(-79.4)" fill="#ff6464" stroke="#000" stroke-miterlimit="10"/>
          <ellipse cx="1085.22" cy="789.06" rx="162.47" ry="159.47" transform="translate(110.01 1710.63) rotate(-79.4)" fill="none" stroke="#000" stroke-miterlimit="10" stroke-width="1.54"/>
        </g>
        <path d="M1130.17,908.33C1164,922,1196.28,932.12,1225.33,938c56,11.33,93.6,5.37,105.87-16.78a39.15,39.15,0,0,0,3.36-9.21s-3.22,6.28-12.18,9.51c-13,15.75-47.34,19.24-95.63,9.47-28.82-5.83-60.93-15.92-94.51-29.54Z" fill="#fc9292" stroke="#000" stroke-miterlimit="10"/>
        <circle cx="1138.31" cy="908.29" r="24.49" fill="#ef1d18" stroke="#000" stroke-miterlimit="10"/>
        <path d="M1120,900.64a3.25,3.25,0,0,1-4.25,1.67,856.6,856.6,0,0,1-77.14-37.92C972.87,828,915.53,785.64,877.13,745.15c-2.35-2.48-4.59-4.92-6.76-7.35a4.08,4.08,0,0,1-1-3.54,3.64,3.64,0,0,1,2.87-2.86,2.79,2.79,0,0,1,2.78.88q3.5,3.93,7.3,7.94c37.91,40,94.64,81.85,159.74,117.91a851.74,851.74,0,0,0,76.5,37.61,3.24,3.24,0,0,1,1.69,4.29Z" fill="#fc9292" stroke="#000" stroke-miterlimit="10"/>
        <circle cx="922.47" cy="944.08" r="24.49" fill="#ef1d18" stroke="#000" stroke-miterlimit="10"/>
        <path d="M1322.06,645.63c7.14,19.14-7,50.61-39.65,87.54-36.48,41.28-91.7,85.13-155.49,123.45s-128.43,66.49-182,79.31q-5.38,1.29-10.53,2.34a2.79,2.79,0,0,0-2.15,2,3.64,3.64,0,0,0,1.13,4,4.13,4.13,0,0,0,3.51.82q4.75-1,9.7-2.17c54.28-13,119.64-41.45,184-80.14s120.21-83,157.16-124.84c37.84-42.82,51.49-78.36,38.45-100.07a38.67,38.67,0,0,0-6.3-7.51S1323.75,636.26,1322.06,645.63Z" fill="#fc9292" stroke="#000" stroke-miterlimit="10"/>
        <path d="M1246,625.73a1.43,1.43,0,0,0,1.55.89c37.45-5.46,63.29-.33,72.43,14.88a25.2,25.2,0,0,1,3.6,10.62,55,55,0,0,0-1.36-19.48c-12.74-13.91-38.71-18.43-75.09-13.2a1.45,1.45,0,0,0-1.1.8A7.1,7.1,0,0,0,1246,625.73Z" fill="#ea3d3d" stroke="#000" stroke-miterlimit="10"/>
        <g>
          <g>
            <path d="M1145.14,762.94c-12.17,0-23.84-12.56-27.15-29.22-1.78-9-1-17.87,2.25-25.1s8.57-12,15-13.29a18.26,18.26,0,0,1,3.45-.34c12.17,0,23.84,12.57,27.15,29.23,3.68,18.55-4.06,35.77-17.24,38.38A17.47,17.47,0,0,1,1145.14,762.94Z" fill="#fff"/>
            <path d="M1138.68,695.49c11.83,0,23.34,12.1,26.66,28.83,3.63,18.31-3.91,35.23-16.85,37.79a16.61,16.61,0,0,1-3.35.33c-11.83,0-23.34-12.09-26.66-28.82-3.63-18.31,3.91-35.23,16.85-37.8a17.37,17.37,0,0,1,3.35-.33m0-1h0a18.24,18.24,0,0,0-3.54.35c-13.46,2.67-21.37,20.16-17.64,39,3.35,16.89,15.23,29.63,27.64,29.63a18.23,18.23,0,0,0,3.54-.34c6.59-1.31,12-6.13,15.36-13.57s4.08-16.35,2.28-25.41c-3.35-16.89-15.23-29.63-27.64-29.63Z"/>
          </g>
          <path d="M1153.22,723.91c-.48-12.8-9.47-22.86-20.08-22.46a17.06,17.06,0,0,0-11.24,5c-4,7.11-5.46,16.94-3.42,27.21a47,47,0,0,0,2.09,7.35c3.68,4.39,8.77,7,14.31,6.83C1145.49,747.4,1153.7,736.7,1153.22,723.91Z" fill="url(#g)"/>
          <ellipse cx="1151.27" cy="721.11" rx="10.74" ry="11.41" transform="translate(-118.34 237.88) rotate(-11.22)" fill="#fff"/>
          <path d="M1157.05,705.8c-5.91-7.48-13.9-11.53-21.72-10-11.09,2.2-18.21,15-17.73,30.09C1124.66,718.54,1138.48,707.1,1157.05,705.8Z" fill="#ff605c" opacity="0.3" style="mix-blend-mode: multiply"/>
          <g style="mix-blend-mode: multiply">
            <path d="M1076.83,746.39a78.24,78.24,0,0,0-11.64,1.7,49.63,49.63,0,0,0-9.6,3.22,41.29,41.29,0,0,0-8.41,5.24,45.56,45.56,0,0,0-8,8.35c-1.48-4.32-.47-9.23,1.82-13.27a22.82,22.82,0,0,1,10.35-9.4,24.27,24.27,0,0,1,13.66-2C1069.56,740.94,1073.94,742.88,1076.83,746.39Z" fill="#ff6464"/>
          </g>
          <g style="mix-blend-mode: multiply">
            <path d="M1032.58,765.15a8.42,8.42,0,0,1-2.24,1.09,13,13,0,0,1-4.69.63,8.39,8.39,0,0,1-2.45-.46,8.77,8.77,0,0,1,2.24-1.1,13.34,13.34,0,0,1,4.69-.62A8.73,8.73,0,0,1,1032.58,765.15Z" fill="#ff6464"/>
          </g>
          <g style="mix-blend-mode: multiply">
            <path d="M1035.53,768.67a7.31,7.31,0,0,1-.74,2.17,10.09,10.09,0,0,1-1.17,1.82,11,11,0,0,1-1.51,1.55,7.25,7.25,0,0,1-2,1.2,7,7,0,0,1,.73-2.18,10.51,10.51,0,0,1,1.18-1.82,11,11,0,0,1,1.51-1.54A7,7,0,0,1,1035.53,768.67Z" fill="#ff6464"/>
          </g>
          <path d="M1151.93,781.27a30.44,30.44,0,0,1-9.67,2.94,57.24,57.24,0,0,1-10.28.52,54.71,54.71,0,0,1-10.07-1.36l-2.34-.54-1.7,2.06-1.81,2.18c-.67.67-1.32,1.36-2,2s-1.46,1.23-2.18,1.87l-2.32,1.71a41.13,41.13,0,0,1-10.53,5.06,43.28,43.28,0,0,1-24.38.55,26.18,26.18,0,0,0,5.58,3.42c0,.12-.08.24-.11.36-1.93,6.93-2.3,16.36,3.85,21.46a11.46,11.46,0,0,0,14.44-.29c2.27-2,3.59-4.9,4.81-7.7a100.61,100.61,0,0,0,4.47-13.46,36.78,36.78,0,0,0,6-2.91l3-2c.93-.74,1.85-1.51,2.76-2.28s1.71-1.68,2.55-2.54l.68-.85a47.35,47.35,0,0,0,9.36.52,45.74,45.74,0,0,0,11.59-2,28,28,0,0,0,10.45-5.77,17,17,0,0,0,3.72-4.71,11.5,11.5,0,0,0,1.38-5.61A15,15,0,0,1,1151.93,781.27Z" fill="#ff6464" style="mix-blend-mode: multiply"/>
        </g>
      </g>
      <g>
        <path d="M528.62,1668.89c-4.46-4.19-6.77-8.67-6.73-13.27a16.46,16.46,0,0,1,.68-4.1,9.53,9.53,0,0,0,2.52,6c.59,3.32,2.77,6.63,6.38,9.81Z" fill="#7dea7d" stroke="#000" stroke-miterlimit="10" stroke-width="0.75"/>
        <path d="M747.42,1714.06c1,4,.68,7.53-.87,10.29-4.06,7.24-12.17,9.54-30.9,6.51a6.69,6.69,0,0,1-.76,2.27c-.18.37-4.58-.3-4.86,0a1.85,1.85,0,0,1-.72.52c20.94,3.59,35,.86,39.89-7.83,2-3.57,2.33-7.95,1-13Z" fill="#7dea7d" stroke="#000" stroke-miterlimit="10" stroke-width="0.75"/>
        <path d="M755.05,1648c2.78,3.09,4.23,6.26,4.2,9.43-.06,8.31-6.06,14.23-23.92,20.61a6.86,6.86,0,0,1,.42,2.35c0,.42-4.16,1.95-4.25,2.36a1.89,1.89,0,0,1-.38.81c20.07-7,31.09-16.15,31.17-26.1,0-4.1-1.8-8.1-5.34-11.89Z" fill="#7dea7d" stroke="#000" stroke-miterlimit="10" stroke-width="0.75"/>
        <path d="M583.85,1604.33c22.87,4.76,50.62,15.87,78.14,31.3s51.48,33.31,67.46,50.35c15.23,16.24,21.46,30.13,17.22,38.16a24.15,24.15,0,0,0,4.34-6.07c-.21-9-6.81-20.81-19.34-34.17-16.2-17.25-40.41-35.33-68.2-50.91s-55.84-26.81-79-31.63Z" fill="#3da03d" stroke="#000" stroke-miterlimit="10" stroke-width="0.75"/>
        <path d="M522.22,1652.87c2-9.67,14.55-18.46,35.73-25,22.61-7,52.61-10.65,84.46-10.41s61.79,4.41,84.29,11.71c17.43,5.66,28.9,12.83,33.43,20.61a24.22,24.22,0,0,1-.88,7.41c-.15-9.09-12.31-18.25-33.48-25.13-22.22-7.22-51.83-11.32-83.38-11.56s-61.22,3.4-83.55,10.27c-21.47,6.6-33.82,15.65-33.9,24.82a10.61,10.61,0,0,0,1,4.65A23.17,23.17,0,0,1,522.22,1652.87Z" fill="#3da03d" stroke="#000" stroke-miterlimit="10" stroke-width="0.75"/>
        <circle cx="580.77" cy="1602.82" r="10.38" fill="#30c630" stroke="#000" stroke-miterlimit="10" stroke-width="0.75"/>
        <circle cx="735.31" cy="1680.41" r="10.38" fill="#30c630" stroke="#000" stroke-miterlimit="10" stroke-width="0.75"/>
        <circle cx="529.13" cy="1664.82" r="10.38" fill="#30c630" stroke="#000" stroke-miterlimit="10" stroke-width="0.75"/>
        <g clip-path="url(#h)">
          <g>
            <path d="M645.44,1725.54a70.59,70.59,0,0,1-33.39-8.47c-34.52-18.63-47.6-62.14-29.16-97A70.51,70.51,0,0,1,679,1590.62c34.52,18.62,47.6,62.14,29.16,97A70.82,70.82,0,0,1,645.44,1725.54Z" fill="#71d871"/>
            <path d="M645.56,1582.64a69.56,69.56,0,0,1,33.15,8.42c34.34,18.52,47.3,61.65,29,96.33A70.37,70.37,0,0,1,645.44,1725a69.54,69.54,0,0,1-33.15-8.41c-34.34-18.53-47.3-61.65-29-96.33a70.4,70.4,0,0,1,62.23-37.66m0-1h0a71.35,71.35,0,0,0-63.11,38.19c-18.57,35.11-5.4,78.92,29.36,97.68a71,71,0,0,0,96.74-29.66c18.57-35.1,5.4-78.92-29.36-97.67a71,71,0,0,0-33.63-8.54Z"/>
          </g>
          <ellipse cx="645.5" cy="1653.84" rx="70.49" ry="71.18" fill="none" stroke="#000" stroke-miterlimit="10" stroke-width="0.68"/>
        </g>
        <path d="M533.89,1670.16a1.26,1.26,0,0,1,1.27.09c5.65,3.91,13.5,7.56,23.27,10.73,22.22,7.21,51.83,11.32,83.38,11.56s61.22-3.4,83.55-10.27c1.49-.46,2.95-.93,4.35-1.41a1.19,1.19,0,0,1,1.22.26,1.55,1.55,0,0,1,.44,1.7,1.76,1.76,0,0,1-1.11,1c-1.3.44-2.63.88-4,1.3-22.62,7-52.61,10.65-84.46,10.41s-61.79-4.41-84.3-11.71c-10.2-3.31-18.36-7.13-24.29-11.28a1.27,1.27,0,0,1,.17-2.17Z" fill="#7dea7d" stroke="#000" stroke-miterlimit="10" stroke-width="0.75"/>
        <circle cx="714.5" cy="1732.91" r="10.38" fill="#30c630" stroke="#000" stroke-miterlimit="10" stroke-width="0.75"/>
        <path d="M541.37,1611.5c-2.78,8.2,3.62,21.36,17.92,36.6,16,17,39.94,34.91,67.46,50.34s55.27,26.55,78.14,31.3c1.53.32,3,.61,4.49.86a1.19,1.19,0,0,1,.94.81,1.56,1.56,0,0,1-.43,1.71,1.79,1.79,0,0,1-1.48.39c-1.35-.24-2.73-.51-4.14-.8-23.16-4.81-51.22-16-79-31.62s-52-33.66-68.2-50.92c-16.57-17.66-22.81-32.55-17.56-41.91a16.51,16.51,0,0,1,2.57-3.27A9.6,9.6,0,0,0,541.37,1611.5Z" fill="#7dea7d" stroke="#000" stroke-miterlimit="10" stroke-width="0.75"/>
        <path d="M573.34,1602.1a.61.61,0,0,1-.65.4c-15.94-1.84-26.82.66-30.5,7.23a10.62,10.62,0,0,0-1.39,4.54,23.27,23.27,0,0,1,.32-8.27c5.23-6,16.17-8.3,31.66-6.54a.59.59,0,0,1,.47.32A3,3,0,0,1,573.34,1602.1Z" fill="#3da03d" stroke="#000" stroke-miterlimit="10" stroke-width="0.75"/>
        <g style="mix-blend-mode: multiply">
          <path d="M645,1655.64a9.91,9.91,0,0,1-2.81,2c-.51.26-1,.48-1.57.7s-1.08.38-1.63.56a19,19,0,0,1-6.9.68,15.21,15.21,0,0,1-6.76-2.14,11.12,11.12,0,0,1-4.46-5.34,29.33,29.33,0,0,0,5.72,2.7,27.9,27.9,0,0,0,5.82,1.07,51.36,51.36,0,0,0,6.11.15C640.65,1656,642.78,1655.89,645,1655.64Z" fill="#71d871"/>
        </g>
        <g opacity="0.5" style="mix-blend-mode: multiply">
          <path d="M650.55,1619.92a11.74,11.74,0,0,1,6.6-1.33,12.12,12.12,0,0,1,6.53,2.57,14.38,14.38,0,0,1,4.05,5.64,26.12,26.12,0,0,1,1,3.25,31.74,31.74,0,0,1,.27,3.34c-.55-1-1-2-1.43-3l-.77-1.4a15.05,15.05,0,0,0-.76-1.37,19.57,19.57,0,0,0-3.87-4.57,13.9,13.9,0,0,0-5.28-2.6A22,22,0,0,0,650.55,1619.92Z" fill="#71d871"/>
        </g>
        <g opacity="0.5" style="mix-blend-mode: multiply">
          <path d="M642.31,1616.1a21.79,21.79,0,0,0-5.08-3.77,14.2,14.2,0,0,0-5.67-1.59,19.81,19.81,0,0,0-5.94.83,13.47,13.47,0,0,0-1.47.51l-1.51.53c-1,.43-2,.88-3,1.25a31.19,31.19,0,0,1,2.42-2.31,24.74,24.74,0,0,1,2.88-1.78,14.38,14.38,0,0,1,6.79-1.5,12,12,0,0,1,6.57,2.43A11.71,11.71,0,0,1,642.31,1616.1Z" fill="#71d871"/>
        </g>
        <g style="mix-blend-mode: multiply">
          <path d="M617.2,1624.48a28.09,28.09,0,0,0,3.46,3.56,18.9,18.9,0,0,0,3.64,2.45,15.58,15.58,0,0,0,4.06,1.39,17.74,17.74,0,0,0,4.88.26,7.23,7.23,0,0,1-4.9,2.67,9.78,9.78,0,0,1-5.73-1,10.55,10.55,0,0,1-4.21-3.92A8.2,8.2,0,0,1,617.2,1624.48Z" fill="#71d871"/>
        </g>
        <g style="mix-blend-mode: multiply">
          <path d="M661.61,1645.25a8.13,8.13,0,0,1-5,2.38,10.4,10.4,0,0,1-5.68-.89,9.76,9.76,0,0,1-4.32-3.89,7.2,7.2,0,0,1-.91-5.51,17.67,17.67,0,0,0,3.2,3.68,15.68,15.68,0,0,0,3.6,2.35,18.86,18.86,0,0,0,4.17,1.35A28.77,28.77,0,0,0,661.61,1645.25Z" fill="#71d871"/>
        </g>
      </g>
      <g opacity="0.65">
        <g>
          <path d="M1184.14,1325.24c6.08-.62,11.11.43,14.85,3.22,9.81,7.31,11.62,19.58,3.65,46.35.6-.09,2.64,1.21,3.16,1.55s-1.3,6.63-.89,7.09a2.9,2.9,0,0,1,.62,1.16c9.2-29.89,7.89-51-3.87-59.73-4.84-3.61-11.17-4.92-18.77-4Z" fill="#d87bff" stroke="#000" stroke-miterlimit="10"/>
          <path d="M964,1491.78c29.79,14.68,68.69,27,110.76,35,46.07,8.79,90.5,11.37,125.1,7.28,32.4-3.83,52.84-13.25,58.36-26.71a34.32,34.32,0,0,0-3.41-11.71,15.57,15.57,0,0,1,.18,7c-2.53,13.26-22.81,23.1-55.66,27-34.16,4-78.1,1.48-123.73-7.22-41.37-7.89-79.59-19.94-108.92-34.29Z" fill="#9414c9" stroke="#000" stroke-miterlimit="10"/>
          <path d="M919.69,1452.78c-3.21-5.21-4.46-10.19-3.59-14.77,2.29-12,12.54-19,40.11-23.51-.35-.5-.06-2.91,0-3.53s6.53-1.72,6.78-2.29a3,3,0,0,1,.76-1.07c-30.91,4.78-49.3,15.16-52,29.56-1.13,5.93.46,12.2,4.6,18.63Z" fill="#d87bff" stroke="#000" stroke-miterlimit="10"/>
          <circle cx="970.47" cy="1493.37" r="15.29" fill="#b408fc" stroke="#000" stroke-miterlimit="10"/>
          <path d="M992.9,1543.28c11.28-32.49,32.77-70.91,60.52-108.16s58.39-68.86,86.3-89c26.6-19.17,48.07-25.63,59-17.9a35.1,35.1,0,0,0-8-7.49c-13.17-1.4-31.67,6-53.56,21.76-28.26,20.37-59.26,52.3-87.27,89.92s-49.74,76.45-61.16,109.37Z" fill="#9414c9" stroke="#000" stroke-miterlimit="10"/>
          <circle cx="990.1" cy="1547.5" r="15.29" fill="#b408fc" stroke="#000" stroke-miterlimit="10"/>
          <path d="M959.7,1487.6a2,2,0,0,1-2.62.64l-1.3-.7c-23.75-12.8-38.47-26.22-43-38.69a35.28,35.28,0,0,1,3.23-10.5c-2.18,13.2,13,29.69,41.86,45.26.44.24.88.48,1.33.71a2,2,0,0,1,.72,2.91Z" fill="#9414c9" stroke="#000" stroke-miterlimit="10"/>
          <circle cx="956.86" cy="1411.09" r="15.29" fill="#b408fc" stroke="#000" stroke-miterlimit="10"/>
          <g clip-path="url(#i)">
            <ellipse cx="1094.98" cy="1469.04" rx="102.97" ry="103.99" fill="#cd41ff" stroke="#000" stroke-miterlimit="10"/>
            <ellipse cx="1094.98" cy="1469.04" rx="102.97" ry="103.99" fill="none" stroke="#000" stroke-miterlimit="10" stroke-width="0.99"/>
          </g>
          <g opacity="0.5" style="mix-blend-mode: multiply">
            <path d="M1073.36,1430.92a17.36,17.36,0,0,1,6.34-7.66,17.61,17.61,0,0,1,9.9-3,19.93,19.93,0,0,1,5.17.74,22.87,22.87,0,0,1,4.7,2,24.3,24.3,0,0,1,7.44,6.51,85.27,85.27,0,0,0-8.67-3.84,34.51,34.51,0,0,0-4.32-1.23,24.57,24.57,0,0,0-4.33-.45,20.22,20.22,0,0,0-8.44,1.86A32,32,0,0,0,1073.36,1430.92Z" fill="#9414c9"/>
          </g>
          <g opacity="0.5" style="mix-blend-mode: multiply">
            <path d="M1055.76,1436.14a32.27,32.27,0,0,0-9.25-1.13,20.36,20.36,0,0,0-8.39,2.07,25.05,25.05,0,0,0-3.69,2.32,33.52,33.52,0,0,0-3.33,3,86.21,86.21,0,0,0-6.08,7.27,24.32,24.32,0,0,1,3.79-9.12,21.91,21.91,0,0,1,3.33-3.88,20.35,20.35,0,0,1,4.31-3,17.65,17.65,0,0,1,10.23-1.65A17.39,17.39,0,0,1,1055.76,1436.14Z" fill="#9414c9"/>
          </g>
          <path d="M1245,1473.45c11.19,10.38,16.21,20.63,14.42,30a24.7,24.7,0,0,1-2.07,5.76,14.11,14.11,0,0,0-2-9.43c0-7.18-4.73-15.19-13.72-23.42" fill="#d87bff" stroke="#000" stroke-miterlimit="10"/>
          <circle cx="1245.8" cy="1478.78" r="15.29" fill="#b408fc" stroke="#000" stroke-miterlimit="10"/>
          <path d="M1238.44,1470.69a1.94,1.94,0,0,0-.16-2.93,167.94,167.94,0,0,0-23-14.63c-30.67-16.54-72.93-30.48-119-39.26s-90.49-11.37-125.09-7.28c-2.12.25-4.17.53-6.18.83a2.52,2.52,0,0,0-1.86,1.24,2.27,2.27,0,0,0,.21,2.58,1.77,1.77,0,0,0,1.71.68c2.15-.32,4.37-.62,6.64-.89,34.16-4,78.1-1.48,123.74,7.22s87.44,22.49,117.71,38.81a162.83,162.83,0,0,1,22.26,14.19,1.92,1.92,0,0,0,2.52-.13Z" fill="#d87bff" stroke="#000" stroke-miterlimit="10"/>
          <circle cx="1205.42" cy="1376.88" r="15.29" fill="#b408fc" stroke="#000" stroke-miterlimit="10"/>
          <path d="M995.32,1606.67c11.45,5.61,31.87-1.24,56.83-19.22,27.9-20.11,58.55-51.71,86.3-89s49.24-75.67,60.52-108.16q1.13-3.27,2.1-6.4a1.77,1.77,0,0,1,1.36-1.21,2.28,2.28,0,0,1,2.42,1,2.62,2.62,0,0,1,.29,2.23q-.92,2.89-2,5.89c-11.43,32.92-33.14,71.76-61.16,109.37s-59,69.55-87.27,89.92c-28.94,20.86-51.86,27.14-64.54,17.7a24.25,24.25,0,0,1-4.28-4.38A14.11,14.11,0,0,0,995.32,1606.67Z" fill="#d87bff" stroke="#000" stroke-miterlimit="10"/>
          <path d="M987.65,1558.21a.89.89,0,0,1,.46,1c-5.71,22.92-4.12,39.29,4.77,45.91a15.54,15.54,0,0,0,6.37,2.89,34.39,34.39,0,0,1-12-2c-7.86-8.78-9.06-25.19-3.56-47.47a.89.89,0,0,1,.56-.63A4.41,4.41,0,0,1,987.65,1558.21Z" fill="#9414c9" stroke="#000" stroke-miterlimit="10"/>
          <path d="M1057.77,1483.46c-2.28-6.89,6.81-5.55,16.43-8.74s16.11-9.7,18.39-2.81-3.66,15-13.27,18.24S1060.05,1490.34,1057.77,1483.46Z" fill="#9414c9" style="mix-blend-mode: multiply"/>
          <g style="mix-blend-mode: multiply">
            <path d="M1079.12,1456.63a12.22,12.22,0,0,1,3.46-7.29,15.7,15.7,0,0,1,7.18-4.33,14.59,14.59,0,0,1,8.46.21,10.79,10.79,0,0,1,6.3,5.13,24.38,24.38,0,0,0-7.06-1.27,21.79,21.79,0,0,0-6.39.76,25.44,25.44,0,0,0-6,2.54A38.32,38.32,0,0,0,1079.12,1456.63Z" fill="#9414c9"/>
          </g>
          <g style="mix-blend-mode: multiply">
            <path d="M1108.3,1448.66a6.75,6.75,0,0,1,2.15-2.11,6.67,6.67,0,0,1,2.83-1.06,6.39,6.39,0,0,1-2.16,2.11A6.63,6.63,0,0,1,1108.3,1448.66Z" fill="#9414c9"/>
          </g>
          <g style="mix-blend-mode: multiply">
            <path d="M1064,1461.85a39.05,39.05,0,0,0-7-2,25.9,25.9,0,0,0-6.53-.36,21.93,21.93,0,0,0-6.26,1.44,24.15,24.15,0,0,0-6.22,3.57,10.79,10.79,0,0,1,4.2-7,14.62,14.62,0,0,1,7.9-3,15.63,15.63,0,0,1,8.22,1.66A12.31,12.31,0,0,1,1064,1461.85Z" fill="#9414c9"/>
          </g>
          <g style="mix-blend-mode: multiply">
            <path d="M1035.09,1464.16a6.73,6.73,0,0,1-2.93.74,6.65,6.65,0,0,1-3-.5,6.39,6.39,0,0,1,2.92-.74A6.7,6.7,0,0,1,1035.09,1464.16Z" fill="#9414c9"/>
          </g>
        </g>
      </g>
      <g>
        <path d="M118,431.54c-4.4,11-5.13,20.9-2,29.35,8.35,22.14,30.2,32.07,84.25,31.55-.5,1.06.84,5.57,1.18,6.72s13,1.12,13.68,2.12a5.6,5.6,0,0,0,1.81,1.78c-60.51,1.13-99-12.58-109-39.13-4.12-10.92-3.18-23.4,2.59-37Z" fill="#c2e8ff" stroke="#000" stroke-miterlimit="10"/>
        <path d="M625.71,192.47c-66.45,3.6-149.37,23-233.48,54.72S233,319,180.67,360.13c-49.85,39.22-73.34,75.69-64.82,100.12a68.36,68.36,0,0,1-9.63-18.95c4.45-25.24,28.07-55.7,69.11-88,53-41.67,128.93-82.23,213.85-114.22s168.76-51.62,236.07-55.27Z" fill="#2c91e5" stroke="#000" stroke-miterlimit="10"/>
        <path d="M718,304.42c2.63,4.74,5.37,10,7.83,15.37,32.25,23.39,48.35,47.4,45,68.46-1.49,9.47-6.9,18.3-15.86,26.28,0,0-2.25,4.79,5.47,6.32,10.45-9.29,16.75-19.8,18.57-31.32C783.3,362.2,761.81,332.51,718,304.42Z" fill="#c2e8ff" stroke="#000" stroke-miterlimit="10"/>
        <g>
          <path d="M635,219.61a30.29,30.29,0,0,1-28.79-21.4,30.11,30.11,0,0,1,28.82-38.78,30.29,30.29,0,0,1,28.79,21.4A30.11,30.11,0,0,1,635,219.61Z" fill="#72b8f7"/>
          <path d="M635.06,159.93a29.61,29.61,0,1,1-8.56,1.27,29.6,29.6,0,0,1,8.56-1.27m0-1h0a30.59,30.59,0,1,0,29.27,21.75,30.6,30.6,0,0,0-29.27-21.75Z"/>
        </g>
        <path d="M691.4,289c-60.29-31.74-143-57-233-71.2S282,202.3,214.82,214c-66.07,11.48-106.13,34.55-113.54,65.17.53,9.86,3.5,21.81,12.82,31.7-4.84-9.29-6.71-18.33-5.37-26.88,4.45-28.2,43.63-50.73,107.5-61.83q3-.53,6-1C287.6,210.69,370.7,212.4,457.12,226c89.08,14,170.91,39,230.42,70.34a318.18,318.18,0,0,1,38.25,23.43c-2.46-5.36-5.2-10.63-7.83-15.37Q705.81,296.64,691.4,289Z" fill="#2c91e5" stroke="#000" stroke-miterlimit="10"/>
        <g>
          <path d="M744.78,452.43a30.1,30.1,0,1,1,28.82-38.79,30.1,30.1,0,0,1-20.11,37.5A30.37,30.37,0,0,1,744.78,452.43Z" fill="#72b8f7"/>
          <path d="M744.81,392.74a29.61,29.61,0,1,1-8.56,1.27,29.6,29.6,0,0,1,8.56-1.27m0-1h0a30.6,30.6,0,0,0,0,61.19,30.27,30.27,0,0,0,8.85-1.32,30.59,30.59,0,0,0-8.82-59.87Z"/>
        </g>
        <g clip-path="url(#j)">
          <ellipse cx="430.82" cy="343.59" rx="198.46" ry="200.43" transform="translate(-88.37 158.94) rotate(-19)" fill="#92c9f2"/>
          <ellipse cx="430.82" cy="343.59" rx="198.46" ry="200.43" transform="translate(-88.37 158.94) rotate(-19)" fill="none" stroke="#000" stroke-miterlimit="10" stroke-width="1.91"/>
        </g>
        <g>
          <path d="M202.7,528.81a30.24,30.24,0,0,1-28.16-19.49,30.11,30.11,0,0,1,28.15-40.7,30.1,30.1,0,0,1,0,60.19Z" fill="#72b8f7"/>
          <path d="M202.69,469.12A29.6,29.6,0,1,1,192.26,471a29.61,29.61,0,0,1,10.43-1.91m0-1h0a30.6,30.6,0,0,0-28.62,41.38,30.58,30.58,0,1,0,28.62-41.38Z"/>
        </g>
        <path d="M742.29,230.85c4.33,24.28-19.33,58.61-66.12,95.4-52.31,41.14-127.44,81.24-211.56,112.93s-167,51.12-233.48,54.72q-6.67.36-13,.5a3.41,3.41,0,0,0-3,1.87,4.42,4.42,0,0,0,.48,5,5,5,0,0,0,4,1.72q5.86-.13,12-.47c67.31-3.64,151.15-23.27,236.07-55.26S628.53,374.71,681.51,333c54.26-42.66,78.2-81.92,67.41-110.55a47.31,47.31,0,0,0-5.85-10.29S746.33,220.07,742.29,230.85Z" fill="#c2e8ff" stroke="#000" stroke-miterlimit="10"/>
        <path d="M656.28,190.69a1.73,1.73,0,0,0,1.65,1.4c45.68,1.64,75.27,13.34,82.82,33.4a30.25,30.25,0,0,1,2,13.41,66.32,66.32,0,0,0,2.61-23.45c-12.12-19.29-42-30.29-86.36-32a1.73,1.73,0,0,0-1.47.7A8.53,8.53,0,0,0,656.28,190.69Z" fill="#2c91e5" stroke="#000" stroke-miterlimit="10"/>
        <g>
          <g>
            <path d="M406.88,337.72c-15,0-28.83-15.67-32.15-36.44-3.59-22.49,6.48-42.87,22.47-45.43a22,22,0,0,1,3.35-.26c15,0,28.83,15.66,32.15,36.43,1.73,10.87.37,21.57-3.84,30.13s-10.85,14.06-18.63,15.3A20.83,20.83,0,0,1,406.88,337.72Z" fill="#fff"/>
            <path d="M400.55,256.09c14.57,0,28.35,15.3,31.65,36,3.56,22.26-6.31,42.34-22.05,44.86a21.2,21.2,0,0,1-3.27.26c-14.57,0-28.35-15.3-31.66-36-3.55-22.26,6.32-42.34,22-44.85a20.23,20.23,0,0,1,3.28-.26m0-1h0a21.83,21.83,0,0,0-3.43.27c-7.94,1.27-14.69,6.8-19,15.57s-5.64,19.46-3.88,30.43c3.35,21,17.39,36.86,32.64,36.86a21.83,21.83,0,0,0,3.43-.27c7.94-1.27,14.69-6.8,19-15.57s5.63-19.47,3.88-30.44c-3.35-21-17.39-36.85-32.64-36.85Z"/>
          </g>
          <path d="M424.28,358.3c1.59.46,3.17.67,4.72,1s3.08.55,4.6.8c3,.52,6,1,8.94,1.49,5.87.92,11.56,1.69,17.17,2.05a85.52,85.52,0,0,0,16.63-.43,74.57,74.57,0,0,0,8.44-1.69c2.88-.78,5.76-1.83,9-2.93a26.68,26.68,0,0,1-6,8.08,34.37,34.37,0,0,1-8.62,5.63,38.25,38.25,0,0,1-9.94,2.94,44,44,0,0,1-10.24.45,53,53,0,0,1-19.27-5.08,49.35,49.35,0,0,1-8.45-5.11,40.13,40.13,0,0,1-3.78-3.24A17.23,17.23,0,0,1,424.28,358.3Z" fill="#60a7e8"/>
          <ellipse cx="403.71" cy="296.65" rx="28.85" ry="40.82" transform="translate(-41.75 67.41) rotate(-9.08)" fill="#fff"/>
          <g clip-path="url(#k)">
            <ellipse cx="410.02" cy="308.07" rx="22.5" ry="28" fill="url(#l)"/>
          </g>
          <g>
            <path d="M500.25,317.82c-15,0-28.83-15.67-32.15-36.44-3.6-22.49,6.48-42.87,22.46-45.43a22.14,22.14,0,0,1,3.35-.26c15,0,28.84,15.66,32.15,36.43,3.6,22.5-6.48,42.88-22.46,45.43A20.93,20.93,0,0,1,500.25,317.82Z" fill="#fff"/>
            <path d="M493.91,236.19c14.58,0,28.35,15.3,31.66,36,3.56,22.26-6.31,42.34-22.05,44.86a21.3,21.3,0,0,1-3.27.26c-14.58,0-28.35-15.3-31.66-36C465,259,474.91,239,490.64,236.45a20.11,20.11,0,0,1,3.27-.26m0-1h0a21.93,21.93,0,0,0-3.43.27c-7.94,1.27-14.68,6.8-19,15.57s-5.63,19.46-3.88,30.43c3.36,21,17.39,36.86,32.65,36.86a21.93,21.93,0,0,0,3.43-.27c7.94-1.27,14.69-6.8,19-15.58S528.31,283,526.56,272c-3.36-21-17.39-36.85-32.65-36.85Z"/>
          </g>
          <g clip-path="url(#m)">
            <ellipse cx="504.02" cy="289.07" rx="22.5" ry="28" fill="url(#n)"/>
          </g>
          <g clip-path="url(#o)">
            <ellipse cx="403.71" cy="296.65" rx="28.85" ry="40.82" transform="translate(-41.75 67.41) rotate(-9.08)" fill="#fff"/>
          </g>
          <g clip-path="url(#m)">
            <ellipse cx="517.73" cy="259.98" rx="12.98" ry="13.78" transform="translate(-34.54 84.94) rotate(-9.08)" fill="#fff"/>
          </g>
          <g clip-path="url(#k)">
            <path d="M372.52,297.07s15-39,50-33l-7-16-27-3-16,14-7,14,4,20Z" fill="#92c9f2" opacity="0.3" style="mix-blend-mode: multiply"/>
          </g>
          <g clip-path="url(#r)">
            <path d="M465.89,277.16s15-39,50-33l-7-16-27-3-16,14-7,14,4,20Z" fill="#92c9f2" opacity="0.3" style="mix-blend-mode: multiply"/>
          </g>
        </g>
        <path d="M101.28,279.12c-.28,1.17-.53,2.34-.72,3.53-5.1,32.38,26,68.07,87.6,100.49,60.29,31.74,143,57,233,71.2,87.26,13.75,171.28,15.46,237.52,4.9,2-.33,4.07-.66,6.07-1C695.53,452.88,720.68,445,739.5,435a4.15,4.15,0,0,0,1.94-5.15v-.05a4.15,4.15,0,0,0-5.8-2.21c-18,9.59-42.48,17.26-72.3,22.45-66.26,11.51-151.81,10.12-240.89-3.91s-170.92-39-230.43-70.35c-40-21-66.8-43.67-77.91-65C104.78,300.93,101.81,289,101.28,279.12Z" fill="#c2e8ff" stroke="#000" stroke-miterlimit="10"/>
      </g>
      <g>
        <path d="M539.18,1036.07c-5.06,1.67-9.43,1.58-12.94-.35a14.39,14.39,0,0,1-2.86-2.22,8.37,8.37,0,0,0,5.68.58c2.78.92,6.22.63,10.15-.81Z" fill="gray" stroke="#000" stroke-miterlimit="10" stroke-width="0.5"/>
        <path d="M675.17,980.62c1.34,3.36,1.56,6.38.58,9-2.56,6.76-9.24,9.78-25.75,9.6a6,6,0,0,1-.36,2.05c-.11.35-4,.34-4.18.64a1.73,1.73,0,0,1-.56.55c18.49.37,30.25-3.8,33.32-11.9,1.26-3.34,1-7.15-.77-11.32Z" fill="gray" stroke="#000" stroke-miterlimit="10" stroke-width="0.5"/>
        <path d="M617.11,854.17c3.52-.85,6.55-.64,9,.69,6.33,3.5,8.37,10.54,5.84,26.86a5.56,5.56,0,0,1,2,.65c.33.15-.23,4,0,4.23a1.65,1.65,0,0,1,.46.62c3-18.24.54-30.48-7-34.67-3.13-1.72-6.94-2-11.31-.84Z" fill="gray" stroke="#000" stroke-miterlimit="10" stroke-width="0.5"/>
        <path d="M520.21,907.33c20.3,1.14,45.62,7.11,71.3,16.84s48.61,22,64.56,34.6c15.21,12,22.37,23.16,19.75,30.62a20.75,20.75,0,0,0,2.95-5.78c-1.34-7.72-8.54-17-21.06-26.91-16.16-12.76-39.34-25.19-65.27-35s-51.52-15.86-72.08-17Z" fill="#2c4159" stroke="#000" stroke-miterlimit="10" stroke-width="0.5"/>
        <path d="M524.27,1034.33c-6.55-5.58-8.09-18.79-4.29-37.7C524,976.44,533.65,952,547,927.69s29-45.45,43.92-59.64c11.55-11,21.8-16.79,29.62-17a20.93,20.93,0,0,1,5.31,3.75c-7-3.65-19.07,1.85-33.11,15.2-14.74,14-30.15,35-43.42,59s-22.79,48.25-26.79,68.18c-3.85,19.17-2.05,32.37,4.93,36.23a9.28,9.28,0,0,0,4,1.18A20.53,20.53,0,0,1,524.27,1034.33Z" fill="#2c4159" stroke="#000" stroke-miterlimit="10" stroke-width="0.5"/>
        <circle cx="517.36" cy="906.43" r="9.04" fill="#b3b3b3" stroke="#000" stroke-miterlimit="10" stroke-width="0.5"/>
        <circle cx="633.71" cy="882.71" r="9.04" fill="#b3b3b3" stroke="#000" stroke-miterlimit="10" stroke-width="0.5"/>
        <circle cx="536.28" cy="1033.99" r="9.04" fill="#b3b3b3" stroke="#000" stroke-miterlimit="10" stroke-width="0.5"/>
        <g clip-path="url(#s)">
          <g>
            <path d="M579.85,1004.53a61.16,61.16,0,0,1-29-7.35c-29.95-16.16-41.3-53.91-25.3-84.15a61.2,61.2,0,0,1,83.34-25.55c29.94,16.16,41.29,53.91,25.29,84.15A61.44,61.44,0,0,1,579.85,1004.53Z" fill="#b3b3b3"/>
            <path d="M580,880.63a60.41,60.41,0,0,1,28.73,7.29c29.75,16.05,41,53.43,25.09,83.48A61,61,0,0,1,579.85,1004a60.3,60.3,0,0,1-28.73-7.29c-29.75-16-41-53.43-25.09-83.48A61,61,0,0,1,580,880.63m0-1h0a61.94,61.94,0,0,0-54.81,33.17c-16.13,30.48-4.69,68.53,25.5,84.82a61.7,61.7,0,0,0,84-25.75c16.12-30.49,4.68-68.54-25.51-84.83a61.66,61.66,0,0,0-29.2-7.41Z"/>
          </g>
          <ellipse cx="579.91" cy="942.33" rx="61.08" ry="61.69" fill="none" stroke="#000" stroke-miterlimit="10" stroke-width="0.59"/>
        </g>
        <path d="M542.34,1032.57a1.08,1.08,0,0,1,.6-.94c5.33-2.7,11.38-7.2,17.86-13.35,14.73-14,30.15-35,43.42-59S627,911,631,891.09c.27-1.34.51-2.64.73-3.92a1,1,0,0,1,.71-.82,1.33,1.33,0,0,1,1.47.37,1.48,1.48,0,0,1,.35,1.28c-.2,1.18-.42,2.38-.67,3.61-4.05,20.19-13.66,44.67-27.06,68.94s-29,45.45-43.91,59.64c-6.77,6.43-13.07,11.1-18.7,13.91a1.1,1.1,0,0,1-1.59-1Z" fill="gray" stroke="#000" stroke-miterlimit="10" stroke-width="0.5"/>
        <circle cx="649.28" cy="1001.09" r="9.04" fill="#b3b3b3" stroke="#000" stroke-miterlimit="10" stroke-width="0.5"/>
        <path d="M484.58,919c-1.33,7.41,5.88,17.91,20.15,29.17,16,12.59,38.89,24.88,64.57,34.61s51,15.7,71.29,16.83c1.36.08,2.69.13,4,.16a1,1,0,0,1,.91.57,1.34,1.34,0,0,1-.15,1.53,1.51,1.51,0,0,1-1.22.53q-1.79,0-3.66-.15c-20.56-1.15-46.16-7.19-72.09-17s-49.1-22.25-65.27-35c-16.55-13.06-23.84-25.06-20.53-33.8a14.4,14.4,0,0,1,1.79-3.14A8.35,8.35,0,0,0,484.58,919Z" fill="gray" stroke="#000" stroke-miterlimit="10" stroke-width="0.5"/>
        <path d="M510.87,906.77a.52.52,0,0,1-.5.43c-14,.48-23,4-25.32,10.16a9.37,9.37,0,0,0-.61,4.09,20.29,20.29,0,0,1-.78-7.16c3.71-5.89,12.84-9.23,26.39-9.73a.55.55,0,0,1,.45.22A2.56,2.56,0,0,1,510.87,906.77Z" fill="#2c4159" stroke="#000" stroke-miterlimit="10" stroke-width="0.5"/>
        <g style="mix-blend-mode: multiply">
          <path d="M592.23,951.82a8.75,8.75,0,0,1-1.18,2.77,16.08,16.08,0,0,1-1.8,2.39,16.6,16.6,0,0,1-4.8,3.65,13.18,13.18,0,0,1-6,1.49,9.57,9.57,0,0,1-5.73-1.93,26.23,26.23,0,0,0,5.46-.6,24.63,24.63,0,0,0,4.81-1.85,49.36,49.36,0,0,0,4.6-2.68C589.11,954.05,590.67,953,592.23,951.82Z" fill="#ccc"/>
        </g>
        <g opacity="0.5" style="mix-blend-mode: multiply">
          <path d="M580.05,922.82a10.27,10.27,0,0,1,4.3-4,10.41,10.41,0,0,1,6-1.06,12.37,12.37,0,0,1,5.57,2.34,23,23,0,0,1,2.2,2c.6.78,1.2,1.54,1.71,2.36-.86-.48-1.63-1-2.4-1.55l-1.21-.68a11.66,11.66,0,0,0-1.19-.67,17.43,17.43,0,0,0-4.95-1.63,12.32,12.32,0,0,0-5.1.48A19.23,19.23,0,0,0,580.05,922.82Z" fill="#ccc"/>
        </g>
        <g opacity="0.5" style="mix-blend-mode: multiply">
          <path d="M572.2,923.74a19.2,19.2,0,0,0-5.48-.49,12.17,12.17,0,0,0-4.92,1.41,17,17,0,0,0-4,3.31,11.42,11.42,0,0,0-.87,1.06L556,930.1c-.52.77-1,1.55-1.67,2.31.18-.95.46-1.87.74-2.82a23.16,23.16,0,0,1,1.33-2.63,12.51,12.51,0,0,1,4.35-4.2,10.37,10.37,0,0,1,6-1.19A10.15,10.15,0,0,1,572.2,923.74Z" fill="#ccc"/>
        </g>
        <g style="mix-blend-mode: multiply">
          <path d="M557.4,941.38a24.84,24.84,0,0,0,4.19,1.07,16.41,16.41,0,0,0,3.81.16,13.72,13.72,0,0,0,3.65-.82,15.2,15.2,0,0,0,3.73-2,6.26,6.26,0,0,1-2.42,4.21,8.44,8.44,0,0,1-4.7,1.87,9.06,9.06,0,0,1-4.91-1A7.08,7.08,0,0,1,557.4,941.38Z" fill="#ccc"/>
        </g>
        <g style="mix-blend-mode: multiply">
          <path d="M599.79,936.57a7.07,7.07,0,0,1-2.62,4,9.13,9.13,0,0,1-4.62,1.93,8.61,8.61,0,0,1-5-.92,6.27,6.27,0,0,1-3.18-3.67,15.25,15.25,0,0,0,4.05,1.27,13.85,13.85,0,0,0,3.74.1,16.56,16.56,0,0,0,3.71-.9A24.23,24.23,0,0,0,599.79,936.57Z" fill="#ccc"/>
        </g>
      </g>
    </g>
  </g>
</svg>
