<svg xmlns="http://www.w3.org/2000/svg" viewBox="0 0 500 500">
  <title>About photos ring</title>
  <circle cx="247.97" cy="246.98" r="231.15" fill="none" stroke="#63a8f2" stroke-miterlimit="10" stroke-width="4"/>
  <g>
    <path d="M75.66,104.07a13.83,13.83,0,1,1,12.81-8.65A13.77,13.77,0,0,1,75.66,104.07Z" fill="#92c9f2"/>
    <path d="M75.66,77.92a12.33,12.33,0,1,1-11.42,7.71,12.37,12.37,0,0,1,11.42-7.71m0-3h0A15.33,15.33,0,1,0,81.4,76a15.27,15.27,0,0,0-5.74-1.12Z" fill="#fff"/>
  </g>
  <g>
    <path d="M86.67,425.44a13.82,13.82,0,1,1,12.82-8.65A13.76,13.76,0,0,1,86.67,425.44Z" fill="#92c9f2"/>
    <path d="M86.68,399.29A12.32,12.32,0,1,1,75.25,407a12.28,12.28,0,0,1,11.43-7.71m0-3h0a15.33,15.33,0,1,0,5.74,1.12,15.25,15.25,0,0,0-5.74-1.12Z" fill="#fff"/>
  </g>
  <g>
    <path d="M436.91,389a13.82,13.82,0,1,1,12.82-8.64A13.77,13.77,0,0,1,436.91,389Z" fill="#92c9f2"/>
    <path d="M436.92,362.88a12.17,12.17,0,0,1,4.61.91,12.28,12.28,0,1,1-4.61-.91m0-3h0a15.32,15.32,0,0,0-5.75,29.53A15.32,15.32,0,0,0,442.65,361a15.3,15.3,0,0,0-5.73-1.12Z" fill="#fff"/>
  </g>
</svg>
