<svg xmlns="http://www.w3.org/2000/svg" viewBox="0 0 500 500">
  <title>About photos ring</title>
  <circle cx="250" cy="250" r="231.15" fill="none" stroke="#63a8f2" stroke-miterlimit="10" stroke-width="4"/>
  <g>
    <circle cx="169.22" cy="468.47" r="13.82" fill="#92c9f2"/>
    <path d="M169.22,456.15a12.33,12.33,0,1,1-12.32,12.32,12.32,12.32,0,0,1,12.32-12.32m0-3a15.33,15.33,0,1,0,15.32,15.32,15.34,15.34,0,0,0-15.32-15.32Z" fill="#fff"/>
  </g>
  <g>
    <path d="M463.06,351.69a13.82,13.82,0,1,1,13.83-13.82A13.84,13.84,0,0,1,463.06,351.69Z" fill="#92c9f2"/>
    <path d="M463.07,325.55a12.32,12.32,0,1,1-12.33,12.32,12.33,12.33,0,0,1,12.33-12.32m0-3a15.32,15.32,0,1,0,15.32,15.32,15.34,15.34,0,0,0-15.32-15.32Z" fill="#fff"/>
  </g>
  <g>
    <circle cx="298.11" cy="26.78" r="13.82" fill="#92c9f2"/>
    <path d="M298.11,14.46a12.32,12.32,0,1,1-12.32,12.32,12.32,12.32,0,0,1,12.32-12.32m0-3a15.32,15.32,0,1,0,15.32,15.32,15.33,15.33,0,0,0-15.32-15.32Z" fill="#fff"/>
  </g>
</svg>
